<svg width="22" height="25" viewBox="0 0 22 25" fill="none" xmlns="http://www.w3.org/2000/svg">
<path d="M1.83267 21.5968C3.16434 23.2014 5.6428 23.2014 10.5997 23.2014H11.4002C16.3572 23.2014 18.8357 23.2014 20.1674 21.5968M1.83267 21.5968C0.501012 19.9923 0.957762 17.5563 1.87126 12.6843C2.5209 9.21956 2.84572 7.4872 4.07889 6.46375M20.1674 21.5968C21.499 19.9923 21.0422 17.5563 20.1287 12.6843C19.4791 9.21956 19.1543 7.4872 17.9211 6.46375M17.9211 6.46375C16.688 5.44031 14.9254 5.44031 11.4002 5.44031H10.5997C7.07461 5.44031 5.31207 5.44031 4.07889 6.46375" stroke="#333333" stroke-width="2"/>
<path d="M7.66968 5.44028V4.33021C7.66968 2.49099 9.16061 1 10.9999 1C12.8392 1 14.3301 2.49099 14.3301 4.33021V5.44028" stroke="#333333" stroke-width="2" stroke-linecap="round"/>
</svg>
