<svg width="620" height="139" viewBox="0 0 620 139" fill="none" xmlns="http://www.w3.org/2000/svg">
<path d="M352.104 67.968C352.288 68.152 352.411 68.4587 352.472 68.888C352.533 69.256 352.564 69.6547 352.564 70.084C352.625 70.452 352.656 70.82 352.656 71.188C352.656 71.4947 352.656 71.74 352.656 71.924C352.779 72.7827 352.748 73.764 352.564 74.868C352.441 75.972 352.135 76.9227 351.644 77.72L350.448 79.744C349.957 80.48 349.528 81.0013 349.16 81.308C348.853 81.5533 348.424 82.0133 347.872 82.688C347.627 83.056 347.32 83.3933 346.952 83.7C346.584 83.9453 346.247 84.2213 345.94 84.528L344.1 85.356C343.609 85.6013 343.057 85.816 342.444 86C341.892 86.184 341.371 86.276 340.88 86.276C339.347 86.5213 337.813 86.7667 336.28 87.012C334.747 87.2573 333.183 87.38 331.588 87.38C331.097 87.38 330.515 87.38 329.84 87.38C329.165 87.4413 328.583 87.472 328.092 87.472C327.601 87.5333 327.049 87.4413 326.436 87.196C325.884 87.012 325.424 86.92 325.056 86.92L322.296 86.644C321.989 86.5827 321.56 86.5213 321.008 86.46C320.456 86.3987 319.965 86.368 319.536 86.368V84.16C319.597 83.8533 319.628 83.5467 319.628 83.24C319.628 82.872 319.628 82.504 319.628 82.136C319.567 81.4613 319.567 80.8173 319.628 80.204C319.689 79.5293 319.689 78.8547 319.628 78.18C319.567 77.8733 319.536 77.5667 319.536 77.26C319.536 76.892 319.536 76.5547 319.536 76.248C319.597 75.6347 319.567 75.0213 319.444 74.408C319.321 73.7947 319.321 73.1813 319.444 72.568C319.689 71.464 319.781 70.36 319.72 69.256C319.659 68.152 319.597 66.956 319.536 65.668C319.475 65.0547 319.444 64.472 319.444 63.92C319.444 63.368 319.444 62.816 319.444 62.264L319.536 57.664C319.536 57.296 319.536 56.8053 319.536 56.192C319.536 55.5787 319.505 54.9653 319.444 54.352C319.444 53.6773 319.413 53.064 319.352 52.512C319.352 51.96 319.352 51.5613 319.352 51.316C319.229 50.764 319.229 50.1507 319.352 49.476C319.413 49.0467 319.444 48.5867 319.444 48.096C319.505 47.6053 319.536 47.1147 319.536 46.624C319.659 45.6427 319.689 44.508 319.628 43.22C319.628 41.8707 319.628 40.6747 319.628 39.632C319.628 38.896 319.659 38.2213 319.72 37.608C319.781 36.9947 319.843 36.596 319.904 36.412C319.843 35.5533 319.843 34.8787 319.904 34.388C319.965 33.8973 319.996 33.4987 319.996 33.192H329.748C330.975 33.192 332.232 33.284 333.52 33.468C334.808 33.5907 336.096 33.7133 337.384 33.836C337.936 33.9587 338.335 34.0813 338.58 34.204C339.009 34.3267 339.377 34.4187 339.684 34.48C339.991 34.5413 340.267 34.6333 340.512 34.756C340.819 35.0627 341.217 35.3693 341.708 35.676C342.199 35.9827 342.659 36.2893 343.088 36.596C343.579 36.8413 344.008 37.148 344.376 37.516C344.805 37.8227 345.081 38.16 345.204 38.528C345.327 38.8347 345.48 39.172 345.664 39.54C345.909 39.8467 346.093 40.1533 346.216 40.46C346.4 41.196 346.523 42.1773 346.584 43.404C346.707 44.5693 346.707 45.7653 346.584 46.992C346.461 48.2187 346.216 49.384 345.848 50.488C345.541 51.592 345.081 52.4507 344.468 53.064C343.793 53.984 343.088 54.7507 342.352 55.364C341.677 55.916 341.064 56.3453 340.512 56.652C340.205 56.652 339.929 56.744 339.684 56.928C339.439 57.0507 339.193 57.112 338.948 57.112C339.439 57.4187 339.837 57.6027 340.144 57.664C340.451 57.664 340.849 57.8173 341.34 58.124C341.463 58.124 341.677 58.1853 341.984 58.308C342.291 58.4307 342.505 58.492 342.628 58.492C343.119 58.492 343.609 58.6453 344.1 58.952C344.652 59.2587 345.327 59.596 346.124 59.964C346.308 60.0867 346.553 60.2707 346.86 60.516C347.228 60.7 347.596 60.9453 347.964 61.252C348.332 61.4973 348.669 61.7427 348.976 61.988C349.283 62.2333 349.497 62.448 349.62 62.632C350.111 63.1227 350.356 63.46 350.356 63.644C350.356 63.828 350.571 64.196 351 64.748C351.368 65.2387 351.613 65.7293 351.736 66.22C351.859 66.7107 351.981 67.2933 352.104 67.968ZM329.84 80.02C330.085 80.02 330.453 79.9893 330.944 79.928C331.496 79.8667 332.017 79.8053 332.508 79.744C333.06 79.6827 333.551 79.652 333.98 79.652C334.409 79.5907 334.624 79.56 334.624 79.56C335.053 79.4373 335.452 79.3453 335.82 79.284C336.249 79.1613 336.648 79.0387 337.016 78.916C337.997 78.4867 338.672 77.9653 339.04 77.352C339.469 76.7387 339.899 75.972 340.328 75.052C340.635 74.3773 340.819 73.6413 340.88 72.844C341.003 72.0467 341.033 71.3107 340.972 70.636C340.972 70.2067 340.972 69.808 340.972 69.44C340.972 69.072 340.941 68.6733 340.88 68.244C340.88 67.692 340.788 67.048 340.604 66.312C340.481 65.5147 340.175 64.932 339.684 64.564C339.255 63.8893 338.457 63.368 337.292 63C336.127 62.5707 335.145 62.2947 334.348 62.172C333.796 62.172 333.275 62.172 332.784 62.172C332.355 62.1107 331.987 61.9573 331.68 61.712H325.792C325.853 61.8347 325.853 62.1107 325.792 62.54C325.792 62.9693 325.792 63.2453 325.792 63.368C325.792 64.7787 325.731 66.22 325.608 67.692C325.485 69.1027 325.455 70.3907 325.516 71.556L325.7 75.788C325.7 75.9107 325.7 76.156 325.7 76.524C325.7 76.892 325.7 77.2907 325.7 77.72C325.7 78.1493 325.7 78.548 325.7 78.916C325.7 79.2227 325.7 79.4373 325.7 79.56C326.436 79.6827 327.141 79.7747 327.816 79.836C328.491 79.8973 329.165 79.9587 329.84 80.02ZM328.644 51.592C328.889 51.592 329.227 51.4693 329.656 51.224C330.147 50.9173 330.515 50.5187 330.76 50.028C331.067 49.5373 331.373 48.924 331.68 48.188C331.987 47.452 331.987 46.716 331.68 45.98C331.68 45.1827 331.465 44.3853 331.036 43.588C330.607 42.7907 329.963 42.2387 329.104 41.932C328.859 41.932 328.705 41.932 328.644 41.932C328.583 41.8707 328.429 41.84 328.184 41.84C327.939 41.9627 327.785 41.9933 327.724 41.932C327.663 41.8707 327.479 41.84 327.172 41.84H326.62C326.62 43.4347 326.559 45.06 326.436 46.716C326.313 48.372 326.375 49.9973 326.62 51.592H328.644ZM367.014 62.264C367.075 62.3867 367.106 62.6933 367.106 63.184C367.106 63.6747 367.106 64.0427 367.106 64.288C366.983 64.5947 366.922 64.9013 366.922 65.208C366.922 65.4533 366.922 65.7293 366.922 66.036C366.922 66.404 366.952 67.1093 367.014 68.152C367.075 69.1333 367.106 69.8387 367.106 70.268V72.292C367.106 72.844 367.106 73.396 367.106 73.948C367.167 74.5 367.198 75.052 367.198 75.604C367.198 76.0333 367.167 76.4627 367.106 76.892C367.044 77.26 367.044 77.6587 367.106 78.088C367.106 78.456 367.136 78.824 367.198 79.192C367.259 79.4987 367.29 79.836 367.29 80.204V88.576C367.29 88.8827 367.32 89.1893 367.382 89.496C367.504 89.8027 367.474 89.9253 367.29 89.864C366.676 89.864 365.971 89.9253 365.174 90.048C364.376 90.232 363.64 90.324 362.966 90.324C362.414 90.324 361.923 90.2933 361.494 90.232C361.126 90.1707 360.604 89.9867 359.93 89.68V88.484C359.623 87.3187 359.439 86.276 359.378 85.356C359.378 84.3747 359.378 83.4547 359.378 82.596C359.378 81.9213 359.378 81.308 359.378 80.756C359.378 80.1427 359.439 79.5293 359.562 78.916C359.562 78.6093 359.5 78.364 359.378 78.18C359.378 78.1187 359.347 77.9653 359.286 77.72C359.286 77.4133 359.286 77.1067 359.286 76.8C359.286 76.4933 359.286 76.2173 359.286 75.972C359.286 75.6653 359.286 75.4507 359.286 75.328V71.464C359.286 70.728 359.255 69.992 359.194 69.256C359.194 68.52 359.255 67.784 359.378 67.048C359.439 66.9867 359.47 66.7107 359.47 66.22C359.531 65.668 359.592 65.0853 359.654 64.472C359.715 63.7973 359.746 63.184 359.746 62.632C359.807 62.0187 359.838 61.6507 359.838 61.528C359.899 60.5467 359.899 59.5653 359.838 58.584C359.838 57.6027 359.868 56.652 359.93 55.732C359.93 53.9533 359.899 52.236 359.838 50.58C359.838 48.8627 359.868 47.1453 359.93 45.428C359.93 44.324 359.93 43.2507 359.93 42.208C359.93 41.104 359.899 40.0307 359.838 38.988C359.776 38.436 359.746 38.0067 359.746 37.7C359.807 37.3933 359.838 37.1173 359.838 36.872C359.899 36.5653 359.93 36.2587 359.93 35.952C359.991 35.6453 359.991 35.1853 359.93 34.572C359.93 33.9587 359.96 33.376 360.022 32.824C360.083 32.2107 360.114 31.628 360.114 31.076C360.114 30.4627 360.083 29.9413 360.022 29.512C360.022 29.0827 360.022 28.5613 360.022 27.948L360.482 27.488C361.095 27.488 361.77 27.5187 362.506 27.58C363.242 27.6413 363.886 27.6413 364.438 27.58C364.928 27.5187 365.296 27.488 365.542 27.488C365.787 27.488 366.155 27.488 366.646 27.488C366.952 27.488 367.198 27.58 367.382 27.764C367.504 29.788 367.504 31.7813 367.382 33.744C367.259 35.7067 367.198 37.7613 367.198 39.908V46.348C367.136 48.556 367.044 50.6107 366.922 52.512C366.86 54.4133 366.83 56.284 366.83 58.124C366.83 58.7987 366.86 59.504 366.922 60.24C366.983 60.9147 367.014 61.5893 367.014 62.264ZM383.245 52.604C383.675 52.4813 384.196 52.2973 384.809 52.052C385.423 51.8067 386.036 51.684 386.649 51.684C387.447 51.684 388.183 51.684 388.857 51.684C389.532 51.6227 390.268 51.592 391.065 51.592C391.679 51.592 392.261 51.6227 392.813 51.684C393.427 51.684 393.979 51.776 394.469 51.96C394.592 51.96 394.745 51.9907 394.929 52.052C395.113 52.1133 395.359 52.2973 395.665 52.604C396.279 52.788 396.861 53.0947 397.413 53.524C397.965 53.9533 398.456 54.4747 398.885 55.088C399.376 55.7013 399.805 56.3453 400.173 57.02C400.603 57.6333 400.971 58.2467 401.277 58.86C401.584 59.3507 401.768 59.9947 401.829 60.792C401.952 61.5893 402.105 62.2333 402.289 62.724C402.289 63.5827 402.32 64.4107 402.381 65.208C402.504 66.0053 402.565 66.8333 402.565 67.692C402.565 69.1027 402.535 70.452 402.473 71.74C402.412 73.028 402.381 74.3773 402.381 75.788L402.197 78.824C402.197 79.0693 402.075 79.4987 401.829 80.112C401.584 80.7253 401.431 81.1853 401.369 81.492C401.185 82.1053 400.94 82.8413 400.633 83.7C400.327 84.4973 400.112 84.9573 399.989 85.08C399.683 85.3867 399.468 85.6627 399.345 85.908C399.223 86.1533 399.1 86.3987 398.977 86.644C398.916 86.8893 398.793 87.104 398.609 87.288C398.487 87.472 398.241 87.656 397.873 87.84C397.567 87.9627 397.199 88.1467 396.769 88.392C396.34 88.6987 395.941 88.9747 395.573 89.22C395.267 89.3427 395.113 89.4347 395.113 89.496C395.113 89.6187 394.899 89.7413 394.469 89.864L392.813 90.232C392.077 90.3547 391.464 90.3853 390.973 90.324C390.544 90.2627 390.053 90.232 389.501 90.232C387.784 90.232 386.067 89.8947 384.349 89.22C383.797 89.22 383.245 89.0973 382.693 88.852C382.203 88.6067 381.835 88.3307 381.589 88.024C381.283 87.7787 380.976 87.5027 380.669 87.196C380.363 86.9507 380.056 86.6747 379.749 86.368C379.259 85.816 378.86 85.264 378.553 84.712C378.247 84.16 377.94 83.5773 377.633 82.964C377.327 82.2893 376.989 81.6147 376.621 80.94C376.253 80.204 376.008 79.4067 375.885 78.548C375.763 77.1373 375.64 75.8493 375.517 74.684C375.456 73.5187 375.425 72.3533 375.425 71.188V67.416C375.364 67.2933 375.333 67.048 375.333 66.68C375.333 66.312 375.364 66.0667 375.425 65.944C375.425 65.6373 375.425 65.3307 375.425 65.024C375.487 64.656 375.548 64.3187 375.609 64.012C375.671 63.5213 375.701 63.0307 375.701 62.54C375.701 62.0493 375.855 61.5587 376.161 61.068C376.1 61.1907 376.131 61.0987 376.253 60.792C376.437 60.424 376.621 60.056 376.805 59.688C376.989 59.2587 377.143 58.8907 377.265 58.584C377.388 58.2773 377.449 58.1547 377.449 58.216L378.093 57.02C378.277 56.836 378.461 56.6213 378.645 56.376C378.829 56.1307 379.075 55.8547 379.381 55.548C379.749 55.2413 380.209 54.8427 380.761 54.352C381.375 53.8613 382.203 53.2787 383.245 52.604ZM389.961 67.876C389.716 67.876 389.471 67.9987 389.225 68.244C389.041 68.4893 388.919 68.704 388.857 68.888C388.428 69.808 388.213 70.5747 388.213 71.188C388.213 72.844 388.796 73.948 389.961 74.5C390.268 74.5 390.513 74.408 390.697 74.224C390.943 73.9787 391.065 73.7333 391.065 73.488C391.065 72.8747 391.127 72.1693 391.249 71.372C391.433 70.5747 391.372 69.7467 391.065 68.888C390.759 68.5813 390.575 68.336 390.513 68.152C390.452 67.968 390.268 67.876 389.961 67.876ZM416.937 52.604C417.366 52.4813 417.887 52.2973 418.501 52.052C419.114 51.8067 419.727 51.684 420.341 51.684C421.138 51.684 421.874 51.684 422.549 51.684C423.223 51.6227 423.959 51.592 424.757 51.592C425.37 51.592 425.953 51.6227 426.505 51.684C427.118 51.684 427.67 51.776 428.161 51.96C428.283 51.96 428.437 51.9907 428.621 52.052C428.805 52.1133 429.05 52.2973 429.357 52.604C429.97 52.788 430.553 53.0947 431.105 53.524C431.657 53.9533 432.147 54.4747 432.577 55.088C433.067 55.7013 433.497 56.3453 433.865 57.02C434.294 57.6333 434.662 58.2467 434.969 58.86C435.275 59.3507 435.459 59.9947 435.521 60.792C435.643 61.5893 435.797 62.2333 435.981 62.724C435.981 63.5827 436.011 64.4107 436.073 65.208C436.195 66.0053 436.257 66.8333 436.257 67.692C436.257 69.1027 436.226 70.452 436.165 71.74C436.103 73.028 436.073 74.3773 436.073 75.788L435.889 78.824C435.889 79.0693 435.766 79.4987 435.521 80.112C435.275 80.7253 435.122 81.1853 435.061 81.492C434.877 82.1053 434.631 82.8413 434.325 83.7C434.018 84.4973 433.803 84.9573 433.681 85.08C433.374 85.3867 433.159 85.6627 433.037 85.908C432.914 86.1533 432.791 86.3987 432.669 86.644C432.607 86.8893 432.485 87.104 432.301 87.288C432.178 87.472 431.933 87.656 431.565 87.84C431.258 87.9627 430.89 88.1467 430.461 88.392C430.031 88.6987 429.633 88.9747 429.265 89.22C428.958 89.3427 428.805 89.4347 428.805 89.496C428.805 89.6187 428.59 89.7413 428.161 89.864L426.505 90.232C425.769 90.3547 425.155 90.3853 424.665 90.324C424.235 90.2627 423.745 90.232 423.193 90.232C421.475 90.232 419.758 89.8947 418.041 89.22C417.489 89.22 416.937 89.0973 416.385 88.852C415.894 88.6067 415.526 88.3307 415.281 88.024C414.974 87.7787 414.667 87.5027 414.361 87.196C414.054 86.9507 413.747 86.6747 413.441 86.368C412.95 85.816 412.551 85.264 412.245 84.712C411.938 84.16 411.631 83.5773 411.325 82.964C411.018 82.2893 410.681 81.6147 410.313 80.94C409.945 80.204 409.699 79.4067 409.577 78.548C409.454 77.1373 409.331 75.8493 409.209 74.684C409.147 73.5187 409.117 72.3533 409.117 71.188V67.416C409.055 67.2933 409.025 67.048 409.025 66.68C409.025 66.312 409.055 66.0667 409.117 65.944C409.117 65.6373 409.117 65.3307 409.117 65.024C409.178 64.656 409.239 64.3187 409.301 64.012C409.362 63.5213 409.393 63.0307 409.393 62.54C409.393 62.0493 409.546 61.5587 409.853 61.068C409.791 61.1907 409.822 61.0987 409.945 60.792C410.129 60.424 410.313 60.056 410.497 59.688C410.681 59.2587 410.834 58.8907 410.957 58.584C411.079 58.2773 411.141 58.1547 411.141 58.216L411.785 57.02C411.969 56.836 412.153 56.6213 412.337 56.376C412.521 56.1307 412.766 55.8547 413.073 55.548C413.441 55.2413 413.901 54.8427 414.453 54.352C415.066 53.8613 415.894 53.2787 416.937 52.604ZM423.653 67.876C423.407 67.876 423.162 67.9987 422.917 68.244C422.733 68.4893 422.61 68.704 422.549 68.888C422.119 69.808 421.905 70.5747 421.905 71.188C421.905 72.844 422.487 73.948 423.653 74.5C423.959 74.5 424.205 74.408 424.389 74.224C424.634 73.9787 424.757 73.7333 424.757 73.488C424.757 72.8747 424.818 72.1693 424.941 71.372C425.125 70.5747 425.063 69.7467 424.757 68.888C424.45 68.5813 424.266 68.336 424.205 68.152C424.143 67.968 423.959 67.876 423.653 67.876ZM492.488 84.896C492.611 83.4853 492.641 82.228 492.58 81.124C492.519 79.9587 492.488 78.9467 492.488 78.088C492.304 77.352 492.181 76.616 492.12 75.88C492.059 75.0827 491.967 74.3467 491.844 73.672C491.537 72.8133 491.323 71.9547 491.2 71.096C491.139 70.176 490.955 69.2867 490.648 68.428C490.648 67.508 490.464 66.6493 490.096 65.852C489.789 64.9933 489.207 64.2573 488.348 63.644C487.673 63.3373 487.06 63.0613 486.508 62.816C485.956 62.5707 485.373 62.448 484.76 62.448C484.453 62.632 483.932 62.9387 483.196 63.368C482.521 63.7973 482.031 64.3493 481.724 65.024C481.417 65.76 481.141 66.4347 480.896 67.048C480.712 67.6 480.497 68.06 480.252 68.428C479.884 69.0413 479.7 69.7773 479.7 70.636C479.7 71.4947 479.669 72.2613 479.608 72.936C479.608 73.0587 479.577 73.3653 479.516 73.856C479.455 74.2853 479.393 74.776 479.332 75.328C479.271 75.88 479.209 76.4013 479.148 76.892C479.087 77.3213 479.056 77.5973 479.056 77.72L478.32 83.056C478.32 83.4853 478.289 83.9147 478.228 84.344C478.228 84.712 478.228 85.1107 478.228 85.54C478.228 85.8467 478.197 86.1533 478.136 86.46C478.075 86.7667 478.044 87.0733 478.044 87.38H477.492C476.756 87.5027 475.959 87.564 475.1 87.564C474.303 87.564 473.352 87.5027 472.248 87.38C471.941 87.3187 471.665 87.2573 471.42 87.196C471.236 87.1347 471.144 86.7973 471.144 86.184C471.144 85.448 471.113 84.7733 471.052 84.16C471.052 83.5467 471.052 82.9027 471.052 82.228C471.113 81.308 471.144 80.388 471.144 79.468C471.144 78.4867 471.052 77.444 470.868 76.34C470.868 75.5427 470.776 74.684 470.592 73.764C470.408 72.844 470.255 71.9547 470.132 71.096C470.009 70.2987 469.948 69.5013 469.948 68.704C469.948 67.8453 469.795 67.0787 469.488 66.404C469.304 65.7907 469.089 65.2387 468.844 64.748C468.66 64.196 468.415 63.6133 468.108 63C468.047 62.8773 467.985 62.816 467.924 62.816C467.863 62.7547 467.801 62.6933 467.74 62.632L467.096 62.356C466.421 61.9267 465.593 61.62 464.612 61.436H464.244L462.22 61.712C460.993 61.896 460.012 62.3253 459.276 63C457.497 64.7787 456.332 67.14 455.78 70.084C455.412 70.636 455.197 71.2187 455.136 71.832C455.075 72.384 454.983 72.936 454.86 73.488C454.737 74.1627 454.645 74.868 454.584 75.604C454.584 76.2787 454.553 76.9533 454.492 77.628C454.492 78.1187 454.4 78.6093 454.216 79.1C454.093 79.5907 454.093 80.0507 454.216 80.48C454.216 80.6027 454.185 80.8787 454.124 81.308C454.124 81.7373 454.093 82.1973 454.032 82.688C454.032 83.1787 454.001 83.6387 453.94 84.068C453.94 84.4973 453.94 84.7733 453.94 84.896C453.817 85.1413 453.756 85.632 453.756 86.368C453.756 87.104 453.725 87.5333 453.664 87.656C453.357 87.656 452.989 87.6867 452.56 87.748C452.192 87.8707 451.793 87.9933 451.364 88.116C450.996 88.2387 450.567 88.2693 450.076 88.208C449.585 88.1467 449.125 88.0547 448.696 87.932C447.776 87.748 447.101 87.656 446.672 87.656C446.243 87.656 445.691 87.564 445.016 87.38C445.016 87.012 444.985 86.552 444.924 86C444.924 85.3867 444.863 84.7733 444.74 84.16C444.679 83.4853 444.617 82.8413 444.556 82.228C444.556 81.6147 444.556 81.1547 444.556 80.848C444.556 80.664 444.525 80.3573 444.464 79.928C444.464 79.4373 444.433 78.9467 444.372 78.456C444.372 77.904 444.341 77.4133 444.28 76.984C444.219 76.4933 444.188 76.156 444.188 75.972C444.127 75.3587 444.096 74.8067 444.096 74.316C444.096 73.8253 444.096 73.2733 444.096 72.66C444.157 72.0467 444.188 71.464 444.188 70.912C444.188 70.36 444.188 69.808 444.188 69.256V61.62C444.188 61.436 444.188 60.976 444.188 60.24C444.249 59.4427 444.28 58.6147 444.28 57.756C444.341 56.8973 444.372 56.1 444.372 55.364C444.433 54.5667 444.464 54.076 444.464 53.892C444.771 53.892 445.169 53.8613 445.66 53.8C446.151 53.7387 446.549 53.708 446.856 53.708C447.469 53.708 448.021 53.708 448.512 53.708C449.064 53.6467 449.616 53.616 450.168 53.616C450.781 53.616 451.088 53.616 451.088 53.616C451.088 53.5547 451.211 53.5547 451.456 53.616C451.64 54.168 451.701 54.536 451.64 54.72C451.64 54.8427 451.701 55.1187 451.824 55.548C451.885 55.8547 451.947 56.2227 452.008 56.652C452.131 57.0813 452.192 57.4493 452.192 57.756V58.216C452.744 57.664 453.296 57.2347 453.848 56.928C454.4 56.56 454.829 56.2227 455.136 55.916C455.995 55.2413 456.884 54.7813 457.804 54.536C458.724 54.2907 459.767 54.076 460.932 53.892L465.072 53.432H465.716C466.636 53.616 467.464 53.8307 468.2 54.076C468.936 54.26 469.703 54.5973 470.5 55.088L472.8 57.112C473.168 57.3573 473.413 57.572 473.536 57.756C473.843 58.0013 474.119 58.308 474.364 58.676C474.671 58.9827 474.947 59.4427 475.192 60.056C475.499 59.7493 475.775 59.4733 476.02 59.228C476.265 58.9213 476.541 58.6147 476.848 58.308C476.971 58.1853 477.124 58.0627 477.308 57.94C477.553 57.8173 477.829 57.6947 478.136 57.572C478.627 57.2653 478.995 57.02 479.24 56.836C479.485 56.5907 479.853 56.3453 480.344 56.1C480.651 55.9773 480.988 55.8547 481.356 55.732C481.785 55.6093 482.153 55.456 482.46 55.272C483.932 54.6587 485.251 54.536 486.416 54.904C487.643 55.272 488.839 55.6093 490.004 55.916C490.924 56.2227 491.691 56.6827 492.304 57.296C492.979 57.9093 493.623 58.6453 494.236 59.504L495.984 63C496.291 63.92 496.567 64.84 496.812 65.76C497.119 66.6187 497.272 67.508 497.272 68.428C497.517 69.5933 497.763 70.7893 498.008 72.016C498.253 73.1813 498.376 74.5 498.376 75.972C498.683 76.892 498.775 77.904 498.652 79.008C498.529 80.112 498.621 81.0933 498.928 81.952V86.736C498.315 86.736 497.824 86.828 497.456 87.012C497.149 87.2573 496.659 87.38 495.984 87.38C495.677 87.38 495.279 87.4107 494.788 87.472C494.297 87.5947 493.899 87.7173 493.592 87.84C493.285 87.84 493.009 87.8093 492.764 87.748C492.58 87.748 492.488 87.6253 492.488 87.38V84.896ZM516.159 77.996C516.281 79.2227 516.312 80.3267 516.251 81.308C516.189 82.2893 516.097 83.2093 515.975 84.068C515.975 84.436 515.883 84.712 515.699 84.896C515.085 85.0187 514.38 85.1413 513.583 85.264C512.785 85.3253 512.049 85.3253 511.375 85.264C510.823 85.2027 510.271 85.2333 509.719 85.356C509.167 85.4173 508.768 85.448 508.523 85.448C508.523 85.08 508.492 84.7427 508.431 84.436C508.369 84.1293 508.369 83.7 508.431 83.148C508.492 82.6573 508.492 82.136 508.431 81.584C508.431 81.032 508.431 80.5107 508.431 80.02V75.512C508.369 74.1013 508.339 72.66 508.339 71.188C508.339 69.716 508.308 68.7347 508.247 68.244C508.185 67.692 508.185 67.14 508.247 66.588C508.369 66.036 508.431 65.484 508.431 64.932C508.369 64.0733 508.339 63.2147 508.339 62.356C508.4 61.436 508.431 60.5467 508.431 59.688C508.431 58.952 508.4 58.0013 508.339 56.836C508.277 55.6093 508.308 54.628 508.431 53.892C508.921 53.7693 509.535 53.708 510.271 53.708C511.007 53.708 511.804 53.6773 512.663 53.616C513.337 53.5547 514.012 53.524 514.687 53.524C515.361 53.524 515.852 53.524 516.159 53.524C516.281 53.524 516.312 53.708 516.251 54.076C516.251 54.3827 516.251 54.5973 516.251 54.72C516.189 56.2533 516.189 57.6027 516.251 58.768C516.312 59.872 516.281 61.0373 516.159 62.264C516.22 63.4907 516.22 64.564 516.159 65.484C516.159 66.3427 516.097 67.3853 515.975 68.612C515.975 68.796 515.975 69.2867 515.975 70.084C515.975 70.8813 516.005 71.8013 516.067 72.844C516.128 73.8253 516.159 74.8067 516.159 75.788C516.159 76.708 516.159 77.444 516.159 77.996ZM508.339 47.636C508.277 47.3293 508.247 46.8693 508.247 46.256C508.308 45.6427 508.339 44.9987 508.339 44.324C508.339 44.0173 508.308 43.7413 508.247 43.496C508.247 43.2507 508.247 43.0053 508.247 42.76C508.247 42.6373 508.247 42.5453 508.247 42.484C508.308 42.4227 508.339 42.3307 508.339 42.208H514.963C515.269 42.208 515.453 42.2387 515.515 42.3C515.576 42.3 515.607 42.4533 515.607 42.76V48.74C515.239 48.8013 514.656 48.832 513.859 48.832C513.123 48.832 512.356 48.832 511.559 48.832C510.761 48.832 510.025 48.832 509.351 48.832C508.737 48.7707 508.431 48.6787 508.431 48.556C508.369 48.372 508.339 48.0653 508.339 47.636ZM525.768 54.628C525.768 54.444 525.738 54.26 525.676 54.076C525.615 53.892 525.615 53.708 525.676 53.524C525.738 53.524 525.83 53.524 525.952 53.524C526.136 53.4627 526.29 53.432 526.412 53.432H526.964C527.271 53.3707 527.578 53.3707 527.884 53.432C528.191 53.432 528.498 53.4013 528.804 53.34H531.564C531.687 53.34 531.81 53.4013 531.932 53.524C532.055 53.6467 532.147 53.7387 532.208 53.8L532.392 54.628C532.392 54.812 532.423 55.0267 532.484 55.272C532.607 55.7627 532.668 56.284 532.668 56.836C532.73 57.02 532.76 57.204 532.76 57.388C532.76 57.756 532.791 57.94 532.852 57.94C533.098 57.6947 533.282 57.4493 533.404 57.204C533.527 56.8973 533.68 56.6827 533.864 56.56C534.048 56.376 534.171 56.2533 534.232 56.192C534.355 56.1307 534.447 56.0693 534.508 56.008C534.631 55.9467 534.784 55.8853 534.968 55.824C535.152 55.7013 535.428 55.5173 535.796 55.272C536.348 54.9653 536.839 54.72 537.268 54.536C537.759 54.352 538.495 54.0147 539.476 53.524C539.66 53.4627 539.967 53.3707 540.396 53.248C540.887 53.1253 541.408 53.0333 541.96 52.972C542.512 52.8493 543.064 52.788 543.616 52.788C544.23 52.7267 544.751 52.696 545.18 52.696C545.855 52.7573 546.407 52.8493 546.836 52.972C547.266 53.0333 547.848 53.1253 548.584 53.248C548.891 53.3093 549.382 53.3707 550.056 53.432C550.792 53.4933 551.283 53.5853 551.528 53.708C553.062 54.5667 554.288 55.3027 555.208 55.916C556.128 56.5293 556.926 57.3573 557.6 58.4C557.723 58.5227 557.907 58.676 558.152 58.86C558.398 58.9827 558.674 59.1973 558.98 59.504C559.287 59.8107 559.563 60.24 559.808 60.792C560.115 61.2827 560.268 61.5893 560.268 61.712C560.514 62.7547 560.79 63.6133 561.096 64.288C561.403 64.9013 561.587 65.7293 561.648 66.772C561.71 67.2627 561.863 67.8147 562.108 68.428C562.354 68.98 562.476 69.5627 562.476 70.176C562.476 70.7893 562.507 71.4947 562.568 72.292C562.63 73.028 562.599 74.1013 562.476 75.512C562.476 75.9413 562.476 76.34 562.476 76.708C562.538 77.076 562.568 77.444 562.568 77.812V82.044C562.568 82.4733 562.568 82.872 562.568 83.24C562.568 83.608 562.538 83.976 562.476 84.344C562.476 84.8347 562.476 85.264 562.476 85.632C562.538 86 562.568 86.4293 562.568 86.92C562.568 87.0427 562.568 87.1653 562.568 87.288C562.568 87.472 562.507 87.5947 562.384 87.656C562.262 87.7173 562.078 87.748 561.832 87.748C561.648 87.748 561.495 87.748 561.372 87.748C560.82 87.748 560.299 87.748 559.808 87.748C559.318 87.8093 558.796 87.8093 558.244 87.748L555.484 87.472C555.239 87.4107 554.902 87.4107 554.472 87.472C554.043 87.5333 553.767 87.4413 553.644 87.196C553.583 85.7853 553.552 84.804 553.552 84.252C553.614 83.6387 553.644 83.0867 553.644 82.596C553.644 82.2893 553.614 81.9213 553.552 81.492C553.491 81.0013 553.43 80.3573 553.368 79.56L553.644 74.684C553.644 74.0707 553.614 73.6107 553.552 73.304C553.552 72.936 553.522 72.66 553.46 72.476C553.46 72.2307 553.43 71.9547 553.368 71.648C553.368 71.3413 553.368 70.8507 553.368 70.176C553.368 69.072 553.154 67.968 552.724 66.864C552.356 65.76 551.896 64.656 551.344 63.552C551.038 62.9387 550.639 62.3867 550.148 61.896C549.658 61.4053 549.014 60.976 548.216 60.608C548.094 60.5467 547.94 60.4853 547.756 60.424C547.572 60.3627 547.419 60.332 547.296 60.332L545.18 60.148C544.138 60.0867 543.064 60.2707 541.96 60.7C540.856 61.1293 540.182 61.5587 539.936 61.988C539.507 62.724 539.17 63.276 538.924 63.644C538.679 64.012 538.434 64.38 538.188 64.748C538.127 64.932 538.035 65.2693 537.912 65.76C537.79 66.1893 537.636 66.7413 537.452 67.416C537.33 68.0293 537.207 68.704 537.084 69.44C536.962 70.1147 536.9 70.728 536.9 71.28C536.9 71.7093 536.9 72.1387 536.9 72.568C536.9 72.936 536.87 73.304 536.808 73.672L536.624 76.248L536.072 79.744C536.072 80.3573 536.072 81.032 536.072 81.768C536.072 82.4427 536.042 83.0867 535.98 83.7V85.816C535.612 86.0613 535.306 86.184 535.06 86.184C534.386 86.3067 533.895 86.4293 533.588 86.552C533.343 86.6747 532.852 86.7053 532.116 86.644C531.442 86.5827 530.552 86.5827 529.448 86.644C528.344 86.7667 527.455 86.7667 526.78 86.644C526.106 86.5213 525.768 86.4293 525.768 86.368C525.768 86.368 525.768 86.2147 525.768 85.908C525.768 85.6627 525.768 85.2947 525.768 84.804C525.83 84.252 525.86 83.7 525.86 83.148C525.86 82.5347 525.86 81.952 525.86 81.4C525.922 80.848 525.952 80.4187 525.952 80.112C525.952 79.008 525.922 78.088 525.86 77.352C525.799 76.616 525.768 75.696 525.768 74.592C525.768 73.672 525.738 72.936 525.676 72.384C525.676 71.7707 525.646 71.004 525.584 70.084C525.584 69.5933 525.615 68.98 525.676 68.244C525.738 67.4467 525.768 66.6187 525.768 65.76C525.768 64.7173 525.738 63.7053 525.676 62.724C525.676 61.7427 525.676 61.0067 525.676 60.516C525.615 59.4733 525.584 58.492 525.584 57.572C525.584 56.5907 525.646 55.6093 525.768 54.628Z" fill="#333333"/>
<path d="M97.9039 61.068C97.9039 60.9453 97.9959 60.5467 98.1799 59.872C98.4253 59.1973 98.5786 58.8293 98.6399 58.768C98.7626 58.4613 98.8546 58.216 98.9159 58.032C98.9773 57.7867 99.1613 57.4493 99.4679 57.02C99.7133 56.7133 100.02 56.3453 100.388 55.916C100.817 55.4867 101.093 55.18 101.216 54.996C101.461 54.628 101.737 54.2907 102.044 53.984C102.289 53.6773 102.657 53.3707 103.148 53.064C103.639 52.7573 104.037 52.4507 104.344 52.144C105.203 51.8987 105.939 51.6533 106.552 51.408C107.227 51.1627 107.871 51.04 108.484 51.04C109.711 51.04 110.876 51.0707 111.98 51.132C113.145 51.1933 114.157 51.3773 115.016 51.684C115.936 51.684 116.703 51.8067 117.316 52.052C117.929 52.236 118.543 52.4813 119.156 52.788C119.463 53.4013 119.861 53.892 120.352 54.26C120.843 54.5667 121.241 54.8733 121.548 55.18L122.1 55.732C122.529 55.4253 122.713 55.088 122.652 54.72C122.652 54.352 122.713 54.0147 122.836 53.708C122.959 53.34 123.02 53.0333 123.02 52.788C123.02 52.4813 123.081 52.2667 123.204 52.144C123.388 52.0827 123.603 52.0827 123.848 52.144C124.093 52.144 124.339 52.144 124.584 52.144C125.136 52.144 125.841 52.1133 126.7 52.052C127.559 51.9907 128.203 52.0213 128.632 52.144C128.755 52.2053 128.877 52.328 129 52.512C129.123 52.6347 129.184 52.7267 129.184 52.788V53.432C129.184 53.8 129.184 54.2907 129.184 54.904C129.245 55.456 129.276 56.0387 129.276 56.652C129.276 57.204 129.245 57.756 129.184 58.308C129.184 58.86 129.184 59.32 129.184 59.688C129.184 59.9947 129.153 60.516 129.092 61.252C129.092 61.988 129.092 62.7853 129.092 63.644C129.092 64.4413 129.092 65.1773 129.092 65.852C129.092 66.5267 129.123 66.8947 129.184 66.956C129.184 67.5693 129.153 68.244 129.092 68.98C129.031 69.716 129.031 70.2373 129.092 70.544L129.184 73.488C129.245 73.9173 129.215 74.592 129.092 75.512C129.031 76.432 129.061 77.4747 129.184 78.64C129.245 79.0693 129.245 79.7133 129.184 80.572C129.184 81.3693 129.153 82.228 129.092 83.148C129.092 84.0067 129.061 84.8347 129 85.632C129 86.368 129 86.8893 129 87.196C129 88.3613 128.785 89.5267 128.356 90.692C127.988 91.9187 127.651 93.1147 127.344 94.28C127.037 94.8933 126.731 95.476 126.424 96.028C126.117 96.58 125.657 97.1933 125.044 97.868C124.799 98.1747 124.523 98.5427 124.216 98.972C123.909 99.4627 123.603 99.8613 123.296 100.168C122.989 100.597 122.437 101.057 121.64 101.548C120.904 102.1 120.383 102.621 120.076 103.112C119.769 103.48 119.248 103.787 118.512 104.032C117.776 104.277 117.255 104.431 116.948 104.492L113.728 105.596C113.176 105.903 112.593 106.148 111.98 106.332C111.428 106.577 110.723 106.731 109.864 106.792C109.741 106.792 109.619 106.761 109.496 106.7C109.373 106.7 109.251 106.731 109.128 106.792C108.515 106.792 107.993 106.853 107.564 106.976C107.196 107.16 106.705 107.252 106.092 107.252H105.54C104.681 107.252 104.099 107.221 103.792 107.16C103.547 107.16 102.903 107.191 101.86 107.252C101.799 107.252 101.615 107.283 101.308 107.344C101.001 107.405 100.848 107.375 100.848 107.252C100.848 106.087 100.787 105.013 100.664 104.032C100.603 103.051 100.572 102.1 100.572 101.18L101.216 100.628H104.344C105.203 100.321 105.969 100.137 106.644 100.076C107.38 100.015 108.208 99.8307 109.128 99.524C109.987 98.972 110.753 98.42 111.428 97.868C112.164 97.316 112.961 96.8867 113.82 96.58C114.433 96.028 115.016 95.4453 115.568 94.832C116.12 94.28 116.549 93.6973 116.856 93.084C117.408 92.532 117.745 91.9493 117.868 91.336C118.052 90.7227 118.297 90.1093 118.604 89.496C118.604 88.944 118.696 88.3613 118.88 87.748C119.064 87.196 119.156 86.6133 119.156 86V83.608C119.156 83.3013 119.064 83.24 118.88 83.424C118.757 83.4853 118.665 83.5467 118.604 83.608C117.745 84.16 116.733 84.4973 115.568 84.62C114.403 84.6813 113.237 84.712 112.072 84.712H111.428C110.569 84.6507 109.741 84.4667 108.944 84.16C108.147 83.976 107.472 83.792 106.92 83.608C106.368 83.424 105.755 83.148 105.08 82.78C104.896 82.6573 104.62 82.5347 104.252 82.412C103.884 82.228 103.271 81.8907 102.412 81.4L101.308 80.112L99.2839 77.904C99.0999 77.5973 98.9159 77.1987 98.7319 76.708C98.6093 76.2173 98.4253 75.6347 98.1799 74.96C98.0573 74.592 97.9039 74.1933 97.7199 73.764C97.5359 73.3347 97.3826 72.8747 97.2599 72.384V64.656C97.2599 64.3493 97.3213 63.9507 97.4439 63.46C97.6279 62.908 97.7199 62.5093 97.7199 62.264C97.7199 62.1413 97.7506 62.0187 97.8119 61.896C97.8119 61.7733 97.8119 61.6507 97.8119 61.528C97.8733 61.4053 97.9039 61.252 97.9039 61.068ZM112.072 71.188C112.379 71.188 112.655 71.1573 112.9 71.096C113.207 71.0347 113.513 70.8507 113.82 70.544C113.943 70.2987 113.973 70.0533 113.912 69.808C113.912 69.5013 113.973 69.2867 114.096 69.164C114.403 68.6733 114.525 68.3667 114.464 68.244C114.403 68.1213 114.372 67.9067 114.372 67.6C114.372 67.2933 114.249 66.9253 114.004 66.496C113.82 66.0053 113.575 65.6067 113.268 65.3C112.961 64.9933 112.747 64.84 112.624 64.84C112.501 64.84 112.103 64.9933 111.428 65.3C110.999 65.7293 110.784 66.6187 110.784 67.968C110.784 68.0907 110.753 68.3667 110.692 68.796C110.692 69.2253 110.753 69.624 110.876 69.992C110.876 70.1147 111.029 70.36 111.336 70.728C111.643 71.0347 111.888 71.188 112.072 71.188ZM138.462 84.712C138.401 84.2213 138.309 83.4853 138.186 82.504C138.125 81.5227 138.064 80.5413 138.002 79.56C137.941 78.5173 137.88 77.5973 137.818 76.8C137.757 75.9413 137.757 75.3893 137.818 75.144C137.818 74.8987 137.818 74.5 137.818 73.948C137.818 73.3347 137.788 72.7213 137.726 72.108C137.665 71.4333 137.604 70.82 137.542 70.268C137.542 69.6547 137.542 69.1947 137.542 68.888C137.604 66.9867 137.604 65.024 137.542 63C137.542 60.976 137.634 59.044 137.818 57.204C137.818 56.8973 137.818 56.4067 137.818 55.732C137.88 54.996 137.91 54.4747 137.91 54.168C137.91 53.8613 137.88 53.4627 137.818 52.972C137.757 52.42 137.788 51.9907 137.91 51.684C137.91 51.132 137.91 50.4573 137.91 49.66C137.91 48.8627 137.91 48.096 137.91 47.36C137.91 46.5627 137.91 45.888 137.91 45.336C137.91 44.7227 137.91 44.324 137.91 44.14C137.849 43.8333 137.818 43.0973 137.818 41.932C137.88 40.7667 137.972 39.6933 138.094 38.712C138.217 38.2213 138.217 37.7 138.094 37.148C138.033 36.5347 138.064 35.9827 138.186 35.492C138.37 34.572 138.462 33.652 138.462 32.732C138.462 31.812 138.462 30.8613 138.462 29.88C138.462 28.592 138.462 27.3347 138.462 26.108C138.524 24.8813 138.554 23.624 138.554 22.336H145.086C145.025 23.072 145.086 23.992 145.27 25.096C145.516 26.1387 145.638 27.028 145.638 27.764L146.19 39.908C146.129 40.7667 146.098 41.656 146.098 42.576C146.16 43.4347 146.19 44.324 146.19 45.244C146.129 46.2253 146.098 47.2373 146.098 48.28C146.16 49.2613 146.19 50.2733 146.19 51.316C146.19 52.236 146.221 53.156 146.282 54.076C146.344 54.9347 146.528 55.824 146.834 56.744C147.141 56.4373 147.478 56.1613 147.846 55.916C148.214 55.6093 148.582 55.4253 148.95 55.364C150.729 54.1373 152.753 53.524 155.022 53.524C155.329 53.524 155.758 53.4627 156.31 53.34C156.862 53.2173 157.445 53.156 158.058 53.156C158.365 53.156 158.672 53.1867 158.978 53.248C159.346 53.3093 159.837 53.4933 160.45 53.8C161.37 54.0453 162.26 54.4133 163.118 54.904C163.977 55.3947 164.836 55.7933 165.694 56.1C166.369 56.5907 166.921 57.0507 167.35 57.48C167.78 57.848 168.148 58.216 168.454 58.584C168.761 58.952 169.068 59.32 169.374 59.688C169.681 60.056 170.049 60.4547 170.478 60.884C171.398 62.0493 172.012 63.1227 172.318 64.104C172.686 65.0853 172.87 66.1587 172.87 67.324C173.177 69.1027 173.33 70.7893 173.33 72.384C173.392 73.9787 173.422 75.6653 173.422 77.444C173.422 78.9773 173.392 80.48 173.33 81.952C173.269 83.424 173.146 84.6813 172.962 85.724C172.84 86.5213 172.809 86.92 172.87 86.92C171.337 86.92 169.804 86.9507 168.27 87.012C166.798 87.0733 165.173 87.2573 163.394 87.564C163.272 87.196 163.241 86.7667 163.302 86.276C163.364 85.7853 163.394 85.3867 163.394 85.08C163.333 84.6507 163.333 84.16 163.394 83.608C163.517 82.9947 163.578 82.32 163.578 81.584C163.578 80.48 163.548 79.284 163.486 77.996C163.425 76.708 163.394 75.5427 163.394 74.5C163.394 73.2733 163.364 72.0467 163.302 70.82C163.241 69.5933 163.057 68.244 162.75 66.772C162.75 66.22 162.658 65.6373 162.474 65.024C162.352 64.4107 162.29 63.7973 162.29 63.184C162.106 62.8773 161.953 62.5707 161.83 62.264C161.708 61.9573 161.524 61.7427 161.278 61.62C160.849 61.3747 160.389 60.976 159.898 60.424C159.469 60.056 158.702 59.78 157.598 59.596C156.556 59.3507 155.697 59.3813 155.022 59.688C154.47 59.9947 153.918 60.3013 153.366 60.608C152.814 60.8533 152.385 61.1293 152.078 61.436C151.465 61.7427 150.913 62.2947 150.422 63.092C149.993 63.8893 149.778 64.748 149.778 65.668C148.552 68.6733 147.938 72.016 147.938 75.696C147.816 76.8 147.754 77.8733 147.754 78.916C147.754 79.8973 147.754 80.8787 147.754 81.86C147.754 82.412 147.693 82.964 147.57 83.516C147.509 84.0067 147.478 84.528 147.478 85.08V88.668C145.945 88.668 144.442 88.76 142.97 88.944C142.05 89.0667 141.161 89.2813 140.302 89.588C139.996 89.7107 139.689 89.8333 139.382 89.956C139.137 90.0787 138.861 90.1093 138.554 90.048C138.309 89.7413 138.248 89.2813 138.37 88.668C138.554 88.0547 138.616 87.5027 138.554 87.012C138.493 86.5213 138.462 86.092 138.462 85.724C138.524 85.356 138.524 85.0187 138.462 84.712ZM198.248 83.7C198.248 84.3747 198.217 85.08 198.156 85.816C198.156 86.552 198.187 87.2573 198.248 87.932C198.248 88.3 198.248 88.8213 198.248 89.496C198.248 90.232 198.217 90.784 198.156 91.152C198.217 91.3973 198.156 91.612 197.972 91.796C197.788 92.0413 197.635 92.2253 197.512 92.348H195.12C194.813 92.348 194.445 92.3173 194.016 92.256C193.648 92.256 193.311 92.256 193.004 92.256C192.759 92.3787 192.421 92.44 191.992 92.44C191.563 92.44 191.103 92.44 190.612 92.44C190.183 92.44 189.753 92.4093 189.324 92.348C188.956 92.348 188.741 92.348 188.68 92.348C188.373 92.0413 188.189 91.8267 188.128 91.704C188.128 91.6427 188.128 91.4587 188.128 91.152V82.32L187.944 76.892L188.128 70.728L188.036 65.392L187.668 60.976C186.932 60.976 186.043 61.0067 185 61.068C183.957 61.1293 183.16 61.0987 182.608 60.976C181.565 60.792 180.737 60.7613 180.124 60.884C179.572 60.9453 178.867 60.976 178.008 60.976V55.088H178.56C178.867 55.088 179.112 55.088 179.296 55.088C179.541 55.0267 179.725 55.0267 179.848 55.088C180.155 55.3333 180.584 55.4253 181.136 55.364C181.749 55.2413 182.025 55.1187 181.964 54.996C182.639 54.9347 183.037 54.904 183.16 54.904C183.344 54.904 183.712 54.904 184.264 54.904C184.755 54.904 185.46 54.9347 186.38 54.996C187.361 54.996 188.005 54.9653 188.312 54.904C188.312 54.904 188.312 54.72 188.312 54.352C188.312 53.984 188.312 53.5547 188.312 53.064C188.312 52.5733 188.312 52.052 188.312 51.5C188.312 50.948 188.312 50.5187 188.312 50.212C188.435 49.0467 188.496 48.004 188.496 47.084C188.557 46.1027 188.619 44.9987 188.68 43.772C188.741 42.9133 188.772 42.0853 188.772 41.288C188.772 40.4907 188.772 39.6627 188.772 38.804C188.772 37.9453 188.803 36.9027 188.864 35.676C188.987 34.388 189.017 33.2533 188.956 32.272C188.956 31.9653 188.895 31.7813 188.772 31.72C188.711 31.5973 188.68 31.3827 188.68 31.076C188.68 30.7693 188.711 30.5547 188.772 30.432C188.833 30.248 189.017 30.156 189.324 30.156C189.876 30.156 190.459 30.1867 191.072 30.248C191.685 30.3093 192.268 30.34 192.82 30.34C193.74 30.34 194.568 30.34 195.304 30.34C196.101 30.34 196.745 30.3707 197.236 30.432C198.156 30.5547 198.861 30.6773 199.352 30.8C199.352 30.8 199.352 30.9533 199.352 31.26C199.352 31.5053 199.352 31.8427 199.352 32.272C199.352 32.64 199.321 33.0387 199.26 33.468C199.26 33.8973 199.26 34.296 199.26 34.664C199.199 36.1973 199.168 37.5467 199.168 38.712C199.168 39.816 199.199 41.1347 199.26 42.668C199.26 43.3427 199.229 44.048 199.168 44.784C199.168 45.52 199.199 46.2253 199.26 46.9C199.26 47.084 199.229 47.4827 199.168 48.096C199.168 48.7093 199.137 49.384 199.076 50.12C199.015 50.7947 198.953 51.4387 198.892 52.052C198.831 52.6653 198.8 53.064 198.8 53.248C198.8 53.5547 198.861 53.8307 198.984 54.076C199.107 54.3213 199.229 54.444 199.352 54.444C199.659 54.444 200.057 54.5053 200.548 54.628C201.039 54.6893 201.437 54.72 201.744 54.72C202.051 54.72 202.357 54.7813 202.664 54.904C203.032 54.9653 203.523 54.996 204.136 54.996C204.688 54.996 205.24 55.0267 205.792 55.088C206.405 55.088 207.049 55.088 207.724 55.088C207.847 55.088 207.969 55.1187 208.092 55.18C208.215 55.18 208.337 55.18 208.46 55.18H208.828C209.135 56.1 209.288 57.1427 209.288 58.308C209.288 59.4733 209.135 60.3627 208.828 60.976H208.276C207.049 61.0987 205.853 61.2213 204.688 61.344C203.523 61.4053 202.327 61.436 201.1 61.436C200.793 61.436 200.425 61.4667 199.996 61.528C199.567 61.528 199.199 61.528 198.892 61.528C198.892 61.6507 198.861 61.804 198.8 61.988C198.8 62.1107 198.8 62.2333 198.8 62.356V62.724V63.552C198.8 64.104 198.8 64.6253 198.8 65.116C198.861 65.5453 198.861 66.0053 198.8 66.496L198.984 71.372L198.616 75.512C198.616 75.8187 198.585 76.3707 198.524 77.168C198.524 77.904 198.493 78.732 198.432 79.652C198.432 80.5107 198.401 81.3387 198.34 82.136C198.279 82.872 198.248 83.3933 198.248 83.7ZM268.875 88.116C268.507 88.3 268.108 88.4533 267.679 88.576C267.311 88.76 266.943 88.9133 266.575 89.036C266.207 89.1587 265.44 89.2813 264.275 89.404C263.11 89.5267 261.944 89.5267 260.779 89.404H258.479C257.988 89.404 257.498 89.4347 257.007 89.496C256.516 89.5573 256.026 89.5267 255.535 89.404C254.002 89.0973 252.714 88.6067 251.671 87.932C250.628 87.3187 249.892 86.9507 249.463 86.828C248.788 86.644 248.144 86.2147 247.531 85.54C246.918 84.804 246.488 84.252 246.243 83.884C245.568 83.3933 244.955 82.8107 244.403 82.136C243.912 81.4 243.452 80.6947 243.023 80.02C242.716 79.284 242.41 78.64 242.103 78.088C241.796 77.4747 241.643 76.8307 241.643 76.156V73.58C241.52 73.212 241.49 72.8747 241.551 72.568C241.612 72.2613 241.643 71.924 241.643 71.556C241.95 70.5747 242.287 69.624 242.655 68.704C243.023 67.784 243.422 66.9253 243.851 66.128C244.219 65.4533 244.587 64.7787 244.955 64.104C245.323 63.368 245.844 62.7547 246.519 62.264C246.642 62.0187 246.734 61.8347 246.795 61.712C246.856 61.528 246.979 61.3747 247.163 61.252C247.838 60.516 248.543 59.8107 249.279 59.136C250.076 58.4613 250.874 57.8787 251.671 57.388C251.426 57.204 251.242 57.02 251.119 56.836C251.058 56.652 250.904 56.4987 250.659 56.376C250.046 55.8853 249.463 55.364 248.911 54.812C248.42 54.1987 247.93 53.6467 247.439 53.156C246.948 52.4813 246.488 51.8067 246.059 51.132C245.691 50.4573 245.507 49.7213 245.507 48.924C245.384 48.6173 245.292 48.3107 245.231 48.004C245.17 47.6973 245.047 47.452 244.863 47.268C244.74 46.9613 244.648 46.716 244.587 46.532C244.587 46.2867 244.587 45.98 244.587 45.612V42.392C244.587 41.9013 244.71 41.4107 244.955 40.92C245.2 40.368 245.384 39.908 245.507 39.54C245.507 38.8653 245.691 38.2827 246.059 37.792C246.488 37.3013 246.856 36.8107 247.163 36.32C247.654 35.584 248.206 35.0013 248.819 34.572C249.494 34.1427 250.107 33.652 250.659 33.1L253.603 32.088C254.278 31.9653 254.922 31.8427 255.535 31.72C256.21 31.536 256.884 31.444 257.559 31.444C259.031 31.6893 260.135 31.8427 260.871 31.904C261.607 31.904 262.22 32.0573 262.711 32.364C263.386 32.732 263.968 33.1613 264.459 33.652C264.95 34.0813 265.44 34.6333 265.931 35.308C266.422 35.6147 266.82 36.0133 267.127 36.504C267.495 36.9947 267.832 37.4853 268.139 37.976C268.323 38.0987 268.446 38.252 268.507 38.436C268.568 38.62 268.691 38.8653 268.875 39.172C269.182 39.6627 269.366 40.2453 269.427 40.92C269.488 41.5333 269.519 42.1773 269.519 42.852C269.519 43.6493 269.335 44.6 268.967 45.704C268.599 46.7467 268.323 47.6053 268.139 48.28C267.832 48.7707 267.526 49.2613 267.219 49.752C266.912 50.2427 266.606 50.7333 266.299 51.224C265.502 52.2667 264.582 53.34 263.539 54.444C262.558 55.548 261.515 56.4067 260.411 57.02L261.055 58.032C261.546 58.5227 262.036 59.0133 262.527 59.504C263.018 59.9947 263.508 60.4853 263.999 60.976C264.49 61.6507 264.98 62.172 265.471 62.54C265.962 62.908 266.422 63.46 266.851 64.196C267.894 64.8707 268.814 65.6987 269.611 66.68C270.408 67.6 271.236 68.4893 272.095 69.348C272.892 69.9613 273.475 70.5747 273.843 71.188C274.211 71.74 274.824 72.6293 275.683 73.856C275.99 73.7333 276.266 73.6107 276.511 73.488C276.756 73.3653 277.032 73.2733 277.339 73.212C278.198 72.844 278.934 72.5067 279.547 72.2C280.16 71.832 280.804 71.3107 281.479 70.636C281.602 70.5133 281.663 70.4213 281.663 70.36C281.724 70.2373 281.878 70.176 282.123 70.176C282.43 70.176 282.675 70.2987 282.859 70.544C283.043 70.728 283.258 70.9733 283.503 71.28C283.81 71.5253 284.055 71.7707 284.239 72.016C284.423 72.2613 284.699 72.5373 285.067 72.844C285.067 72.9667 285.098 73.0587 285.159 73.12C285.282 73.3653 285.343 73.5187 285.343 73.58C285.22 73.8253 284.944 74.1933 284.515 74.684C284.147 75.1133 283.81 75.4813 283.503 75.788C283.135 76.0947 282.767 76.4933 282.399 76.984C282.031 77.4747 281.694 77.8733 281.387 78.18L282.123 79.376C282.798 80.1733 283.503 80.9093 284.239 81.584C284.975 82.1973 285.65 82.9027 286.263 83.7L286.999 84.252L287.919 85.264C287.858 85.5093 287.766 85.6933 287.643 85.816C286.846 86.8587 286.294 87.932 285.987 89.036C285.68 89.036 285.466 88.9747 285.343 88.852C285.22 88.7293 285.006 88.6067 284.699 88.484L276.971 82.596C276.603 83.148 276.174 83.5773 275.683 83.884C275.192 84.1907 274.763 84.528 274.395 84.896C274.088 85.08 273.751 85.2947 273.383 85.54C273.076 85.7853 272.77 85.9693 272.463 86.092C272.095 86.5827 271.758 86.828 271.451 86.828C271.144 86.9507 270.715 87.1653 270.163 87.472C269.672 87.7787 269.243 87.9933 268.875 88.116ZM258.755 80.94C258.878 80.94 259.215 81.0013 259.767 81.124C260.319 81.1853 260.902 81.2773 261.515 81.4C262.128 81.4613 262.711 81.5227 263.263 81.584C263.815 81.6453 264.183 81.676 264.367 81.676C265.287 81.3693 266.238 81.2467 267.219 81.308C268.262 81.308 269.12 81.0013 269.795 80.388C270.163 80.204 270.5 80.02 270.807 79.836C271.114 79.652 271.42 79.4987 271.727 79.376C272.095 79.192 272.432 78.9773 272.739 78.732C273.046 78.4867 273.383 78.2413 273.751 77.996C273.567 77.8733 273.444 77.7507 273.383 77.628C273.322 77.444 273.199 77.2907 273.015 77.168C272.218 76.6773 271.42 76.0027 270.623 75.144C269.826 74.2853 268.998 73.5187 268.139 72.844C267.832 72.5373 267.526 72.292 267.219 72.108C266.912 71.8627 266.606 71.5867 266.299 71.28C265.318 70.4213 264.367 69.5933 263.447 68.796C262.527 67.9987 261.638 67.1093 260.779 66.128L256.271 61.528C256.087 61.4053 255.842 61.252 255.535 61.068C255.29 60.8227 255.014 60.608 254.707 60.424C254.4 60.976 253.94 61.5893 253.327 62.264C252.775 62.9387 252.438 63.46 252.315 63.828C251.702 65.484 251.395 66.8947 251.395 68.06C251.272 68.7347 251.242 69.348 251.303 69.9C251.364 70.3907 251.395 70.9427 251.395 71.556C251.702 72.5987 252.039 73.58 252.407 74.5C252.775 75.42 253.266 76.3093 253.879 77.168C254.37 78.088 255.075 78.824 255.995 79.376C256.915 79.928 257.835 80.4493 258.755 80.94ZM253.603 43.496C253.112 43.8027 252.714 44.232 252.407 44.784C252.1 45.336 251.947 45.8573 251.947 46.348C251.947 46.8387 251.978 47.3293 252.039 47.82C252.1 48.2493 252.315 48.6173 252.683 48.924C252.99 49.2307 253.235 49.5067 253.419 49.752C253.603 49.9973 253.818 50.304 254.063 50.672C254.063 50.856 254.155 51.1013 254.339 51.408C254.584 51.6533 254.86 51.9293 255.167 52.236C255.474 52.5427 255.78 52.8187 256.087 53.064C256.394 53.248 256.608 53.3707 256.731 53.432C257.038 53.3093 257.406 52.9107 257.835 52.236C258.264 51.5613 258.571 50.8867 258.755 50.212C259 49.9053 259.184 49.568 259.307 49.2C259.491 48.832 259.583 48.4947 259.583 48.188C259.706 47.6973 259.706 47.1147 259.583 46.44C259.522 45.704 259.399 45.244 259.215 45.06C258.847 44.7533 258.479 44.4467 258.111 44.14C257.804 43.8333 257.498 43.6187 257.191 43.496C257.007 43.312 256.823 43.22 256.639 43.22C256.455 43.1587 256.21 43.128 255.903 43.128C255.596 43.128 255.228 43.128 254.799 43.128C254.431 43.128 254.032 43.2507 253.603 43.496Z" fill="#333333"/>
<path d="M35.604 66.968C35.788 67.152 35.9107 67.4587 35.972 67.888C36.0333 68.256 36.064 68.6547 36.064 69.084C36.1253 69.452 36.156 69.82 36.156 70.188C36.156 70.4947 36.156 70.74 36.156 70.924C36.2787 71.7827 36.248 72.764 36.064 73.868C35.9413 74.972 35.6347 75.9227 35.144 76.72L33.948 78.744C33.4573 79.48 33.028 80.0013 32.66 80.308C32.3533 80.5533 31.924 81.0133 31.372 81.688C31.1267 82.056 30.82 82.3933 30.452 82.7C30.084 82.9453 29.7467 83.2213 29.44 83.528L27.6 84.356C27.1093 84.6013 26.5573 84.816 25.944 85C25.392 85.184 24.8707 85.276 24.38 85.276C22.8467 85.5213 21.3133 85.7667 19.78 86.012C18.2467 86.2573 16.6827 86.38 15.088 86.38C14.5973 86.38 14.0147 86.38 13.34 86.38C12.6653 86.4413 12.0827 86.472 11.592 86.472C11.1013 86.5333 10.5493 86.4413 9.936 86.196C9.384 86.012 8.924 85.92 8.556 85.92L5.796 85.644C5.48933 85.5827 5.06 85.5213 4.508 85.46C3.956 85.3987 3.46533 85.368 3.036 85.368V83.16C3.09733 82.8533 3.128 82.5467 3.128 82.24C3.128 81.872 3.128 81.504 3.128 81.136C3.06667 80.4613 3.06667 79.8173 3.128 79.204C3.18933 78.5293 3.18933 77.8547 3.128 77.18C3.06667 76.8733 3.036 76.5667 3.036 76.26C3.036 75.892 3.036 75.5547 3.036 75.248C3.09733 74.6347 3.06667 74.0213 2.944 73.408C2.82133 72.7947 2.82133 72.1813 2.944 71.568C3.18933 70.464 3.28133 69.36 3.22 68.256C3.15867 67.152 3.09733 65.956 3.036 64.668C2.97467 64.0547 2.944 63.472 2.944 62.92C2.944 62.368 2.944 61.816 2.944 61.264L3.036 56.664C3.036 56.296 3.036 55.8053 3.036 55.192C3.036 54.5787 3.00533 53.9653 2.944 53.352C2.944 52.6773 2.91333 52.064 2.852 51.512C2.852 50.96 2.852 50.5613 2.852 50.316C2.72933 49.764 2.72933 49.1507 2.852 48.476C2.91333 48.0467 2.944 47.5867 2.944 47.096C3.00533 46.6053 3.036 46.1147 3.036 45.624C3.15867 44.6427 3.18933 43.508 3.128 42.22C3.128 40.8707 3.128 39.6747 3.128 38.632C3.128 37.896 3.15867 37.2213 3.22 36.608C3.28133 35.9947 3.34267 35.596 3.404 35.412C3.34267 34.5533 3.34267 33.8787 3.404 33.388C3.46533 32.8973 3.496 32.4987 3.496 32.192H13.248C14.4747 32.192 15.732 32.284 17.02 32.468C18.308 32.5907 19.596 32.7133 20.884 32.836C21.436 32.9587 21.8347 33.0813 22.08 33.204C22.5093 33.3267 22.8773 33.4187 23.184 33.48C23.4907 33.5413 23.7667 33.6333 24.012 33.756C24.3187 34.0627 24.7173 34.3693 25.208 34.676C25.6987 34.9827 26.1587 35.2893 26.588 35.596C27.0787 35.8413 27.508 36.148 27.876 36.516C28.3053 36.8227 28.5813 37.16 28.704 37.528C28.8267 37.8347 28.98 38.172 29.164 38.54C29.4093 38.8467 29.5933 39.1533 29.716 39.46C29.9 40.196 30.0227 41.1773 30.084 42.404C30.2067 43.5693 30.2067 44.7653 30.084 45.992C29.9613 47.2187 29.716 48.384 29.348 49.488C29.0413 50.592 28.5813 51.4507 27.968 52.064C27.2933 52.984 26.588 53.7507 25.852 54.364C25.1773 54.916 24.564 55.3453 24.012 55.652C23.7053 55.652 23.4293 55.744 23.184 55.928C22.9387 56.0507 22.6933 56.112 22.448 56.112C22.9387 56.4187 23.3373 56.6027 23.644 56.664C23.9507 56.664 24.3493 56.8173 24.84 57.124C24.9627 57.124 25.1773 57.1853 25.484 57.308C25.7907 57.4307 26.0053 57.492 26.128 57.492C26.6187 57.492 27.1093 57.6453 27.6 57.952C28.152 58.2587 28.8267 58.596 29.624 58.964C29.808 59.0867 30.0533 59.2707 30.36 59.516C30.728 59.7 31.096 59.9453 31.464 60.252C31.832 60.4973 32.1693 60.7427 32.476 60.988C32.7827 61.2333 32.9973 61.448 33.12 61.632C33.6107 62.1227 33.856 62.46 33.856 62.644C33.856 62.828 34.0707 63.196 34.5 63.748C34.868 64.2387 35.1133 64.7293 35.236 65.22C35.3587 65.7107 35.4813 66.2933 35.604 66.968ZM13.34 79.02C13.5853 79.02 13.9533 78.9893 14.444 78.928C14.996 78.8667 15.5173 78.8053 16.008 78.744C16.56 78.6827 17.0507 78.652 17.48 78.652C17.9093 78.5907 18.124 78.56 18.124 78.56C18.5533 78.4373 18.952 78.3453 19.32 78.284C19.7493 78.1613 20.148 78.0387 20.516 77.916C21.4973 77.4867 22.172 76.9653 22.54 76.352C22.9693 75.7387 23.3987 74.972 23.828 74.052C24.1347 73.3773 24.3187 72.6413 24.38 71.844C24.5027 71.0467 24.5333 70.3107 24.472 69.636C24.472 69.2067 24.472 68.808 24.472 68.44C24.472 68.072 24.4413 67.6733 24.38 67.244C24.38 66.692 24.288 66.048 24.104 65.312C23.9813 64.5147 23.6747 63.932 23.184 63.564C22.7547 62.8893 21.9573 62.368 20.792 62C19.6267 61.5707 18.6453 61.2947 17.848 61.172C17.296 61.172 16.7747 61.172 16.284 61.172C15.8547 61.1107 15.4867 60.9573 15.18 60.712H9.292C9.35333 60.8347 9.35333 61.1107 9.292 61.54C9.292 61.9693 9.292 62.2453 9.292 62.368C9.292 63.7787 9.23067 65.22 9.108 66.692C8.98533 68.1027 8.95467 69.3907 9.016 70.556L9.2 74.788C9.2 74.9107 9.2 75.156 9.2 75.524C9.2 75.892 9.2 76.2907 9.2 76.72C9.2 77.1493 9.2 77.548 9.2 77.916C9.2 78.2227 9.2 78.4373 9.2 78.56C9.936 78.6827 10.6413 78.7747 11.316 78.836C11.9907 78.8973 12.6653 78.9587 13.34 79.02ZM12.144 50.592C12.3893 50.592 12.7267 50.4693 13.156 50.224C13.6467 49.9173 14.0147 49.5187 14.26 49.028C14.5667 48.5373 14.8733 47.924 15.18 47.188C15.4867 46.452 15.4867 45.716 15.18 44.98C15.18 44.1827 14.9653 43.3853 14.536 42.588C14.1067 41.7907 13.4627 41.2387 12.604 40.932C12.3587 40.932 12.2053 40.932 12.144 40.932C12.0827 40.8707 11.9293 40.84 11.684 40.84C11.4387 40.9627 11.2853 40.9933 11.224 40.932C11.1627 40.8707 10.9787 40.84 10.672 40.84H10.12C10.12 42.4347 10.0587 44.06 9.936 45.716C9.81333 47.372 9.87467 48.9973 10.12 50.592H12.144ZM41.4978 73.224C41.4978 72.7947 41.4978 72.1507 41.4978 71.292C41.5591 70.4333 41.5591 69.6053 41.4978 68.808C41.5591 68.256 41.5898 67.704 41.5898 67.152C41.5898 66.6 41.5898 66.0173 41.5898 65.404L41.3138 57.952V53.812C41.9884 53.812 42.6938 53.812 43.4298 53.812C44.1658 53.7507 44.9938 53.7813 45.9138 53.904C46.1591 53.9653 46.4044 53.996 46.6498 53.996H47.9378C48.3671 54.1187 48.5818 54.18 48.5818 54.18C48.5818 54.1187 48.6738 54.1493 48.8578 54.272C48.8578 54.5787 48.8271 54.824 48.7658 55.008C48.7044 55.1307 48.6738 55.3453 48.6738 55.652V58.596C48.9191 58.2893 49.0724 58.044 49.1338 57.86C49.2564 57.6147 49.4711 57.3387 49.7778 57.032L50.3298 56.848C51.1271 56.0507 52.1084 55.5293 53.2738 55.284C54.4391 55.0387 55.6044 54.9773 56.7698 55.1C57.0151 55.1 57.4138 55.2227 57.9658 55.468C58.5178 55.652 59.0698 55.8973 59.6218 56.204C60.0511 56.2653 60.4191 56.388 60.7258 56.572L61.0018 56.848C61.6151 57.4 62.1978 57.8907 62.7498 58.32C63.3018 58.688 63.7004 59.1787 63.9458 59.792C64.5591 60.6507 65.0498 61.5707 65.4178 62.552C65.7858 63.5333 66.1231 64.6067 66.4298 65.772C66.4298 66.0787 66.3991 66.3547 66.3378 66.6C66.2764 66.8453 66.0924 66.968 65.7858 66.968C64.8658 67.2747 64.0071 67.428 63.2098 67.428C62.4738 67.3667 61.4618 67.3973 60.1738 67.52H59.1618C59.0391 67.4587 58.9471 67.3667 58.8858 67.244C58.8858 67.1213 58.8858 67.0293 58.8858 66.968C58.8244 66.6 58.7324 66.2933 58.6098 66.048C58.5484 65.7413 58.5178 65.496 58.5178 65.312C58.5178 65.1893 58.4871 65.036 58.4258 64.852C58.3644 64.668 58.3031 64.5147 58.2418 64.392C58.1191 64.208 58.0271 64.0547 57.9658 63.932C56.8004 62.7667 55.6658 62.184 54.5618 62.184C54.4391 62.184 54.2551 62.184 54.0098 62.184C53.8258 62.184 53.6418 62.2453 53.4578 62.368C53.1511 62.4907 52.6911 62.7053 52.0778 63.012C51.5258 63.2573 51.1578 63.472 50.9738 63.656C50.6671 63.9627 50.3298 64.3 49.9618 64.668C49.6551 64.9747 49.4098 65.3427 49.2258 65.772C49.1644 66.0173 49.1031 66.4467 49.0418 67.06C49.0418 67.612 49.0418 67.9493 49.0418 68.072C48.9191 68.624 48.7964 69.36 48.6738 70.28C48.5511 71.2 48.4898 71.9973 48.4898 72.672C48.4898 73.1013 48.4284 73.6533 48.3058 74.328C48.2444 75.0027 48.2138 75.616 48.2138 76.168C48.2138 76.5973 48.1831 76.996 48.1218 77.364C48.1218 77.732 48.1218 78.1 48.1218 78.468V81.964C48.1218 82.332 48.0911 82.7307 48.0298 83.16C48.0298 83.5893 48.0298 84.0187 48.0298 84.448V86.472C44.9631 87.1467 42.8471 87.1467 41.6818 86.472C41.5591 86.0427 41.4671 85.5213 41.4058 84.908C41.3444 84.2333 41.3444 83.8347 41.4058 83.712C41.5284 82.608 41.5591 81.504 41.4978 80.4C41.4364 79.296 41.4058 78.1613 41.4058 76.996C41.3444 76.3827 41.3444 75.7387 41.4058 75.064C41.4671 74.3893 41.4978 73.776 41.4978 73.224Z" fill="#333333"/>
<path d="M87 16.9989C87 10.9865 83.13 2.37355 77 0C70.87 2.37355 67 10.9865 67 16.9989C67 23.0113 70.87 31.6239 77 34C83.1299 31.6244 87 23.0117 87 16.9989Z" fill="#333333"/>
<path d="M82.0819 41.4309C86.9318 45.2722 96.0296 44.3733 101.128 41.5675C106.226 38.7641 111.74 31.621 110.918 25.5676C106.071 21.7308 96.9751 22.6252 91.8766 25.4286C86.7786 28.2345 81.2598 35.3755 82.0819 41.4309Z" fill="#333333"/>
<path d="M52.8749 41.5676C57.9713 44.3733 67.0723 45.2722 71.9177 41.431C72.7422 35.3783 67.2231 28.2376 62.1271 25.4295C57.0281 22.6261 47.9296 21.7293 43.0819 25.5684C42.2597 31.6215 47.7789 38.7643 52.8749 41.5676Z" fill="#333333"/>
<path d="M73 51.2003V86.7997C73 87.4626 74.7906 88 77.0001 88C79.2094 88 81 87.4626 81 86.7997V51.2003C81 50.5374 79.2094 50 77.0001 50C74.7906 50 73 50.5374 73 51.2003Z" fill="#333333"/>
<path d="M580.602 113.211C583.914 117.263 591.191 120.997 596.51 119.318C599.214 114.439 597.002 106.565 593.691 102.513C590.379 98.4618 583.103 94.7279 577.782 96.4056C575.079 101.285 577.29 109.159 580.602 113.211Z" fill="#333333"/>
<path d="M570.019 93.361C564.439 93.3909 558.655 99.1782 556.745 104.049C554.833 108.918 555.141 117.092 559.21 120.906C564.786 120.874 570.57 115.092 572.482 110.223C574.392 105.352 574.088 97.1773 570.019 93.361Z" fill="#333333"/>
<path d="M589.458 77.3112C584.306 78.2128 577.482 82.7302 576.346 88.1898C579.273 92.9368 587.223 94.8614 592.376 93.9618C597.529 93.0571 604.35 88.5397 605.489 83.0802C602.56 78.3342 594.609 76.4082 589.458 77.3112Z" fill="#333333"/>
</svg>
