<svg width="289" height="201" viewBox="0 0 289 201" fill="none" xmlns="http://www.w3.org/2000/svg">
<path fill-rule="evenodd" clip-rule="evenodd" d="M88 16.9989C88 10.9865 84.13 2.37355 78 0C71.87 2.37355 68 10.9865 68 16.9989C68 23.0113 71.87 31.6239 78 34C84.1299 31.6244 88 23.0117 88 16.9989ZM98.404 63.068C98.404 62.9453 98.496 62.5467 98.68 61.872C98.9253 61.1973 99.0787 60.8293 99.14 60.768C99.2627 60.4613 99.3547 60.216 99.416 60.032C99.4773 59.7867 99.6613 59.4493 99.968 59.02C100.213 58.7133 100.52 58.3453 100.888 57.916C101.317 57.4867 101.593 57.18 101.716 56.996C101.961 56.628 102.237 56.2907 102.544 55.984C102.789 55.6773 103.157 55.3707 103.648 55.064C104.139 54.7573 104.537 54.4507 104.844 54.144C105.703 53.8987 106.439 53.6533 107.052 53.408C107.727 53.1627 108.371 53.04 108.984 53.04C110.211 53.04 111.376 53.0707 112.48 53.132C113.645 53.1933 114.657 53.3773 115.516 53.684C116.436 53.684 117.203 53.8067 117.816 54.052C118.429 54.236 119.043 54.4813 119.656 54.788C119.963 55.4013 120.361 55.892 120.852 56.26C121.343 56.5667 121.741 56.8733 122.048 57.18L122.6 57.732C123.029 57.4253 123.213 57.088 123.152 56.72C123.152 56.352 123.213 56.0147 123.336 55.708C123.459 55.34 123.52 55.0333 123.52 54.788C123.52 54.4813 123.581 54.2667 123.704 54.144C123.888 54.0827 124.103 54.0827 124.348 54.144H125.084C125.636 54.144 126.341 54.1133 127.2 54.052C128.059 53.9907 128.703 54.0213 129.132 54.144C129.255 54.2053 129.377 54.328 129.5 54.512C129.623 54.6347 129.684 54.7267 129.684 54.788V55.432V56.904C129.745 57.456 129.776 58.0387 129.776 58.652C129.776 59.204 129.745 59.756 129.684 60.308V61.688C129.684 61.9947 129.653 62.516 129.592 63.252V65.644V67.852C129.592 68.5267 129.623 68.8947 129.684 68.956C129.684 69.5693 129.653 70.244 129.592 70.98C129.531 71.716 129.531 72.2373 129.592 72.544L129.684 75.488C129.745 75.9173 129.715 76.592 129.592 77.512C129.531 78.432 129.561 79.4747 129.684 80.64C129.745 81.0693 129.745 81.7133 129.684 82.572C129.684 83.3693 129.653 84.228 129.592 85.148C129.592 86.0067 129.561 86.8347 129.5 87.632V89.196C129.5 90.3613 129.285 91.5267 128.856 92.692C128.488 93.9187 128.151 95.1147 127.844 96.28C127.537 96.8933 127.231 97.476 126.924 98.028C126.617 98.58 126.157 99.1933 125.544 99.868C125.299 100.175 125.023 100.543 124.716 100.972C124.409 101.463 124.103 101.861 123.796 102.168C123.489 102.597 122.937 103.057 122.14 103.548C121.404 104.1 120.883 104.621 120.576 105.112C120.269 105.48 119.748 105.787 119.012 106.032C118.276 106.277 117.755 106.431 117.448 106.492L114.228 107.596C113.676 107.903 113.093 108.148 112.48 108.332C111.928 108.577 111.223 108.731 110.364 108.792C110.241 108.792 110.119 108.761 109.996 108.7C109.873 108.7 109.751 108.731 109.628 108.792C109.015 108.792 108.493 108.853 108.064 108.976C107.696 109.16 107.205 109.252 106.592 109.252H106.04C105.181 109.252 104.599 109.221 104.292 109.16C104.047 109.16 103.403 109.191 102.36 109.252C102.299 109.252 102.115 109.283 101.808 109.344C101.501 109.405 101.348 109.375 101.348 109.252C101.348 108.087 101.287 107.013 101.164 106.032C101.103 105.051 101.072 104.1 101.072 103.18L101.716 102.628H104.844C105.703 102.321 106.469 102.137 107.144 102.076C107.88 102.015 108.708 101.831 109.628 101.524C110.487 100.972 111.253 100.42 111.928 99.868C112.664 99.316 113.461 98.8867 114.32 98.58C114.933 98.028 115.516 97.4453 116.068 96.832C116.62 96.28 117.049 95.6973 117.356 95.084C117.908 94.532 118.245 93.9493 118.368 93.336C118.552 92.7227 118.797 92.1093 119.104 91.496C119.104 90.944 119.196 90.3613 119.38 89.748C119.564 89.196 119.656 88.6133 119.656 88V85.608C119.656 85.3013 119.564 85.24 119.38 85.424C119.257 85.4853 119.165 85.5467 119.104 85.608C118.245 86.16 117.233 86.4973 116.068 86.62C114.903 86.6813 113.737 86.712 112.572 86.712H111.928C111.069 86.6507 110.241 86.4667 109.444 86.16C108.647 85.976 107.972 85.792 107.42 85.608C106.868 85.424 106.255 85.148 105.58 84.78C105.396 84.6573 105.12 84.5347 104.752 84.412C104.384 84.228 103.771 83.8907 102.912 83.4L101.808 82.112L99.784 79.904C99.6 79.5973 99.416 79.1987 99.232 78.708C99.1093 78.2173 98.9253 77.6347 98.68 76.96C98.5573 76.592 98.404 76.1933 98.22 75.764C98.036 75.3347 97.8827 74.8747 97.76 74.384V66.656C97.76 66.3493 97.8213 65.9507 97.944 65.46C98.128 64.908 98.22 64.5093 98.22 64.264C98.22 64.1413 98.2507 64.0187 98.312 63.896V63.528C98.3733 63.4053 98.404 63.252 98.404 63.068ZM112.572 73.188C112.879 73.188 113.155 73.1573 113.4 73.096C113.707 73.0347 114.013 72.8507 114.32 72.544C114.443 72.2987 114.473 72.0533 114.412 71.808C114.412 71.5013 114.473 71.2867 114.596 71.164C114.903 70.6733 115.025 70.3667 114.964 70.244C114.903 70.1213 114.872 69.9067 114.872 69.6C114.872 69.2933 114.749 68.9253 114.504 68.496C114.32 68.0053 114.075 67.6067 113.768 67.3C113.461 66.9933 113.247 66.84 113.124 66.84C113.001 66.84 112.603 66.9933 111.928 67.3C111.499 67.7293 111.284 68.6187 111.284 69.968C111.284 70.0907 111.253 70.3667 111.192 70.796C111.192 71.2253 111.253 71.624 111.376 71.992C111.376 72.1147 111.529 72.36 111.836 72.728C112.143 73.0347 112.388 73.188 112.572 73.188ZM138.686 84.504L138.502 81.56C138.441 80.5173 138.38 79.5973 138.318 78.8C138.257 77.9413 138.257 77.3893 138.318 77.144V75.948C138.318 75.3347 138.288 74.7213 138.226 74.108C138.165 73.4333 138.104 72.82 138.042 72.268V70.888C138.104 68.9867 138.104 67.024 138.042 65C138.042 62.976 138.134 61.044 138.318 59.204V57.732C138.38 56.996 138.41 56.4747 138.41 56.168C138.41 55.8613 138.38 55.4627 138.318 54.972C138.257 54.42 138.288 53.9907 138.41 53.684V51.66V49.36V47.336V46.14C138.349 45.8333 138.318 45.0973 138.318 43.932C138.38 42.7667 138.472 41.6933 138.594 40.712C138.717 40.2213 138.717 39.7 138.594 39.148C138.533 38.5347 138.564 37.9827 138.686 37.492C138.87 36.572 138.962 35.652 138.962 34.732V31.88V28.108C139.024 26.8813 139.054 25.624 139.054 24.336H145.586C145.525 25.072 145.586 25.992 145.77 27.096C146.016 28.1387 146.138 29.028 146.138 29.764L146.69 41.908C146.629 42.7667 146.598 43.656 146.598 44.576C146.66 45.4347 146.69 46.324 146.69 47.244C146.629 48.2253 146.598 49.2373 146.598 50.28C146.66 51.2613 146.69 52.2733 146.69 53.316C146.69 54.236 146.721 55.156 146.782 56.076C146.844 56.9347 147.028 57.824 147.334 58.744C147.641 58.4373 147.978 58.1613 148.346 57.916C148.714 57.6093 149.082 57.4253 149.45 57.364C151.229 56.1373 153.253 55.524 155.522 55.524C155.829 55.524 156.258 55.4627 156.81 55.34C157.362 55.2173 157.945 55.156 158.558 55.156C158.865 55.156 159.172 55.1867 159.478 55.248C159.846 55.3093 160.337 55.4933 160.95 55.8C161.87 56.0453 162.76 56.4133 163.618 56.904C164.477 57.3947 165.336 57.7933 166.194 58.1C166.869 58.5907 167.421 59.0507 167.85 59.48C168.28 59.848 168.648 60.216 168.954 60.584L169.874 61.688C170.181 62.056 170.549 62.4547 170.978 62.884C171.898 64.0493 172.512 65.1227 172.818 66.104C173.186 67.0853 173.37 68.1587 173.37 69.324C173.677 71.1027 173.83 72.7893 173.83 74.384C173.892 75.9787 173.922 77.6653 173.922 79.444C173.922 80.9773 173.892 82.48 173.83 83.952C173.769 85.424 173.646 86.6813 173.462 87.724C173.34 88.5213 173.309 88.92 173.37 88.92C171.837 88.92 170.304 88.9507 168.77 89.012C167.298 89.0733 165.673 89.2573 163.894 89.564C163.772 89.196 163.741 88.7667 163.802 88.276C163.864 87.7853 163.894 87.3867 163.894 87.08C163.833 86.6507 163.833 86.16 163.894 85.608C164.017 84.9947 164.078 84.32 164.078 83.584C164.078 82.48 164.048 81.284 163.986 79.996C163.925 78.708 163.894 77.5427 163.894 76.5C163.894 75.2733 163.864 74.0467 163.802 72.82C163.741 71.5933 163.557 70.244 163.25 68.772C163.25 68.22 163.158 67.6373 162.974 67.024C162.852 66.4107 162.79 65.7973 162.79 65.184C162.606 64.8773 162.453 64.5707 162.33 64.264C162.208 63.9573 162.024 63.7427 161.778 63.62C161.349 63.3747 160.889 62.976 160.398 62.424C159.969 62.056 159.202 61.78 158.098 61.596C157.056 61.3507 156.197 61.3813 155.522 61.688L153.866 62.608C153.314 62.8533 152.885 63.1293 152.578 63.436C151.965 63.7427 151.413 64.2947 150.922 65.092C150.493 65.8893 150.278 66.748 150.278 67.668C149.052 70.6733 148.438 74.016 148.438 77.696C148.316 78.8 148.254 79.8733 148.254 80.916V83.86C148.254 84.412 148.193 84.964 148.07 85.516C148.009 86.0067 147.978 86.528 147.978 87.08V90.668C146.445 90.668 144.942 90.76 143.47 90.944C142.55 91.0667 141.661 91.2813 140.802 91.588L139.882 91.956C139.637 92.0787 139.361 92.1093 139.054 92.048C138.809 91.7413 138.748 91.2813 138.87 90.668C139.054 90.0547 139.116 89.5027 139.054 89.012C138.993 88.5213 138.962 88.092 138.962 87.724C139.024 87.356 139.024 87.0187 138.962 86.712L138.686 84.504ZM198.748 85.7C198.748 86.3747 198.717 87.08 198.656 87.816C198.656 88.552 198.687 89.2573 198.748 89.932V91.496C198.748 92.232 198.717 92.784 198.656 93.152C198.717 93.3973 198.656 93.612 198.472 93.796C198.288 94.0413 198.135 94.2253 198.012 94.348H195.62C195.313 94.348 194.945 94.3173 194.516 94.256H193.504C193.259 94.3787 192.921 94.44 192.492 94.44H191.112C190.683 94.44 190.253 94.4093 189.824 94.348H189.18C188.873 94.0413 188.689 93.8267 188.628 93.704V93.152V84.32L188.444 78.892L188.628 72.728L188.536 67.392L188.168 62.976C187.432 62.976 186.543 63.0067 185.5 63.068C184.457 63.1293 183.66 63.0987 183.108 62.976C182.065 62.792 181.237 62.7613 180.624 62.884C180.072 62.9453 179.367 62.976 178.508 62.976V57.088H179.06H179.796C180.041 57.0267 180.225 57.0267 180.348 57.088C180.655 57.3333 181.084 57.4253 181.636 57.364C182.249 57.2413 182.525 57.1187 182.464 56.996C183.139 56.9347 183.537 56.904 183.66 56.904H184.764C185.255 56.904 185.96 56.9347 186.88 56.996C187.861 56.996 188.505 56.9653 188.812 56.904V56.352V55.064V53.5V52.212C188.935 51.0467 188.996 50.004 188.996 49.084C189.057 48.1027 189.119 46.9987 189.18 45.772C189.241 44.9133 189.272 44.0853 189.272 43.288V40.804C189.272 39.9453 189.303 38.9027 189.364 37.676C189.487 36.388 189.517 35.2533 189.456 34.272C189.456 33.9653 189.395 33.7813 189.272 33.72C189.211 33.5973 189.18 33.3827 189.18 33.076C189.18 32.7693 189.211 32.5547 189.272 32.432C189.333 32.248 189.517 32.156 189.824 32.156C190.376 32.156 190.959 32.1867 191.572 32.248C192.185 32.3093 192.768 32.34 193.32 32.34H195.804C196.601 32.34 197.245 32.3707 197.736 32.432C198.656 32.5547 199.361 32.6773 199.852 32.8V33.26V34.272C199.852 34.64 199.821 35.0387 199.76 35.468V36.664C199.699 38.1973 199.668 39.5467 199.668 40.712C199.668 41.816 199.699 43.1347 199.76 44.668C199.76 45.3427 199.729 46.048 199.668 46.784C199.668 47.52 199.699 48.2253 199.76 48.9C199.76 49.084 199.729 49.4827 199.668 50.096C199.668 50.7093 199.637 51.384 199.576 52.12C199.515 52.7947 199.453 53.4387 199.392 54.052C199.331 54.6653 199.3 55.064 199.3 55.248C199.3 55.5547 199.361 55.8307 199.484 56.076C199.607 56.3213 199.729 56.444 199.852 56.444C200.159 56.444 200.557 56.5053 201.048 56.628C201.539 56.6893 201.937 56.72 202.244 56.72C202.551 56.72 202.857 56.7813 203.164 56.904C203.532 56.9653 204.023 56.996 204.636 56.996C205.188 56.996 205.74 57.0267 206.292 57.088H208.224C208.347 57.088 208.469 57.1187 208.592 57.18H208.96H209.328C209.635 58.1 209.788 59.1427 209.788 60.308C209.788 61.4733 209.635 62.3627 209.328 62.976H208.776C207.549 63.0987 206.353 63.2213 205.188 63.344C204.023 63.4053 202.827 63.436 201.6 63.436C201.293 63.436 200.925 63.4667 200.496 63.528H199.392C199.392 63.6507 199.361 63.804 199.3 63.988V64.356V64.724V65.552V67.116C199.361 67.5453 199.361 68.0053 199.3 68.496L199.484 73.372L199.116 77.512C199.116 77.8187 199.085 78.3707 199.024 79.168C199.024 79.904 198.993 80.732 198.932 81.652C198.932 82.5107 198.901 83.3387 198.84 84.136C198.779 84.872 198.748 85.3933 198.748 85.7ZM269.375 90.116C269.007 90.3 268.609 90.4533 268.179 90.576C267.811 90.76 267.443 90.9133 267.075 91.036C266.707 91.1587 265.941 91.2813 264.775 91.404C263.61 91.5267 262.445 91.5267 261.279 91.404H258.979C258.489 91.404 257.998 91.4347 257.507 91.496C257.017 91.5573 256.526 91.5267 256.035 91.404C254.502 91.0973 253.214 90.6067 252.171 89.932C251.129 89.3187 250.393 88.9507 249.963 88.828C249.289 88.644 248.645 88.2147 248.031 87.54C247.418 86.804 246.989 86.252 246.743 85.884C246.069 85.3933 245.455 84.8107 244.903 84.136C244.413 83.4 243.953 82.6947 243.523 82.02C243.217 81.284 242.91 80.64 242.603 80.088C242.297 79.4747 242.143 78.8307 242.143 78.156V75.58C242.021 75.212 241.99 74.8747 242.051 74.568C242.113 74.2613 242.143 73.924 242.143 73.556C242.45 72.5747 242.787 71.624 243.155 70.704C243.523 69.784 243.922 68.9253 244.351 68.128L245.455 66.104C245.823 65.368 246.345 64.7547 247.019 64.264L247.295 63.712C247.357 63.528 247.479 63.3747 247.663 63.252C248.338 62.516 249.043 61.8107 249.779 61.136C250.577 60.4613 251.374 59.8787 252.171 59.388C251.926 59.204 251.742 59.02 251.619 58.836C251.558 58.652 251.405 58.4987 251.159 58.376C250.546 57.8853 249.963 57.364 249.411 56.812C248.921 56.1987 248.43 55.6467 247.939 55.156C247.449 54.4813 246.989 53.8067 246.559 53.132C246.191 52.4573 246.007 51.7213 246.007 50.924C245.885 50.6173 245.793 50.3107 245.731 50.004C245.67 49.6973 245.547 49.452 245.363 49.268C245.241 48.9613 245.149 48.716 245.087 48.532V47.612V44.392C245.087 43.9013 245.21 43.4107 245.455 42.92C245.701 42.368 245.885 41.908 246.007 41.54C246.007 40.8653 246.191 40.2827 246.559 39.792C246.989 39.3013 247.357 38.8107 247.663 38.32C248.154 37.584 248.706 37.0013 249.319 36.572C249.994 36.1427 250.607 35.652 251.159 35.1L254.103 34.088C254.778 33.9653 255.422 33.8427 256.035 33.72C256.71 33.536 257.385 33.444 258.059 33.444C259.531 33.6893 260.635 33.8427 261.371 33.904C262.107 33.904 262.721 34.0573 263.211 34.364C263.886 34.732 264.469 35.1613 264.959 35.652C265.45 36.0813 265.941 36.6333 266.431 37.308C266.922 37.6147 267.321 38.0133 267.627 38.504C267.995 38.9947 268.333 39.4853 268.639 39.976C268.823 40.0987 268.946 40.252 269.007 40.436C269.069 40.62 269.191 40.8653 269.375 41.172C269.682 41.6627 269.866 42.2453 269.927 42.92C269.989 43.5333 270.019 44.1773 270.019 44.852C270.019 45.6493 269.835 46.6 269.467 47.704C269.099 48.7467 268.823 49.6053 268.639 50.28L267.719 51.752L266.799 53.224C266.002 54.2667 265.082 55.34 264.039 56.444C263.058 57.548 262.015 58.4067 260.911 59.02L261.555 60.032L263.027 61.504L264.499 62.976C264.99 63.6507 265.481 64.172 265.971 64.54C266.462 64.908 266.922 65.46 267.351 66.196C268.394 66.8707 269.314 67.6987 270.111 68.68C270.909 69.6 271.737 70.4893 272.595 71.348C273.393 71.9613 273.975 72.5747 274.343 73.188C274.711 73.74 275.325 74.6293 276.183 75.856C276.49 75.7333 276.766 75.6107 277.011 75.488C277.257 75.3653 277.533 75.2733 277.839 75.212C278.698 74.844 279.434 74.5067 280.047 74.2C280.661 73.832 281.305 73.3107 281.979 72.636C282.102 72.5133 282.163 72.4213 282.163 72.36C282.225 72.2373 282.378 72.176 282.623 72.176C282.93 72.176 283.175 72.2987 283.359 72.544C283.543 72.728 283.758 72.9733 284.003 73.28C284.31 73.5253 284.555 73.7707 284.739 74.016C284.923 74.2613 285.199 74.5373 285.567 74.844C285.567 74.9667 285.598 75.0587 285.659 75.12C285.782 75.3653 285.843 75.5187 285.843 75.58C285.721 75.8253 285.445 76.1933 285.015 76.684C284.647 77.1133 284.31 77.4813 284.003 77.788C283.635 78.0947 283.267 78.4933 282.899 78.984C282.531 79.4747 282.194 79.8733 281.887 80.18L282.623 81.376C283.298 82.1733 284.003 82.9093 284.739 83.584C285.475 84.1973 286.15 84.9027 286.763 85.7L287.499 86.252L288.419 87.264C288.358 87.5093 288.266 87.6933 288.143 87.816C287.346 88.8587 286.794 89.932 286.487 91.036C286.181 91.036 285.966 90.9747 285.843 90.852C285.721 90.7293 285.506 90.6067 285.199 90.484L277.471 84.596C277.103 85.148 276.674 85.5773 276.183 85.884C275.693 86.1907 275.263 86.528 274.895 86.896C274.589 87.08 274.251 87.2947 273.883 87.54C273.577 87.7853 273.27 87.9693 272.963 88.092C272.595 88.5827 272.258 88.828 271.951 88.828C271.645 88.9507 271.215 89.1653 270.663 89.472C270.173 89.7787 269.743 89.9933 269.375 90.116ZM259.255 82.94C259.378 82.94 259.715 83.0013 260.267 83.124C260.819 83.1853 261.402 83.2773 262.015 83.4C262.629 83.4613 263.211 83.5227 263.763 83.584C264.315 83.6453 264.683 83.676 264.867 83.676C265.787 83.3693 266.738 83.2467 267.719 83.308C268.762 83.308 269.621 83.0013 270.295 82.388C270.663 82.204 271.001 82.02 271.307 81.836C271.614 81.652 271.921 81.4987 272.227 81.376C272.595 81.192 272.933 80.9773 273.239 80.732C273.546 80.4867 273.883 80.2413 274.251 79.996C274.067 79.8733 273.945 79.7507 273.883 79.628C273.822 79.444 273.699 79.2907 273.515 79.168C272.718 78.6773 271.921 78.0027 271.123 77.144C270.326 76.2853 269.498 75.5187 268.639 74.844C268.333 74.5373 268.026 74.292 267.719 74.108C267.413 73.8627 267.106 73.5867 266.799 73.28C265.818 72.4213 264.867 71.5933 263.947 70.796C263.027 69.9987 262.138 69.1093 261.279 68.128L256.771 63.528C256.587 63.4053 256.342 63.252 256.035 63.068C255.79 62.8227 255.514 62.608 255.207 62.424C254.901 62.976 254.441 63.5893 253.827 64.264C253.275 64.9387 252.938 65.46 252.815 65.828C252.202 67.484 251.895 68.8947 251.895 70.06C251.773 70.7347 251.742 71.348 251.803 71.9C251.865 72.3907 251.895 72.9427 251.895 73.556C252.202 74.5987 252.539 75.58 252.907 76.5C253.275 77.42 253.766 78.3093 254.379 79.168C254.87 80.088 255.575 80.824 256.495 81.376C257.415 81.928 258.335 82.4493 259.255 82.94ZM254.103 45.496C253.613 45.8027 253.214 46.232 252.907 46.784C252.601 47.336 252.447 47.8573 252.447 48.348C252.447 48.8387 252.478 49.3293 252.539 49.82C252.601 50.2493 252.815 50.6173 253.183 50.924C253.49 51.2307 253.735 51.5067 253.919 51.752C254.103 51.9973 254.318 52.304 254.563 52.672C254.563 52.856 254.655 53.1013 254.839 53.408L255.667 54.236C255.974 54.5427 256.281 54.8187 256.587 55.064C256.894 55.248 257.109 55.3707 257.231 55.432C257.538 55.3093 257.906 54.9107 258.335 54.236C258.765 53.5613 259.071 52.8867 259.255 52.212C259.501 51.9053 259.685 51.568 259.807 51.2C259.991 50.832 260.083 50.4947 260.083 50.188C260.206 49.6973 260.206 49.1147 260.083 48.44C260.022 47.704 259.899 47.244 259.715 47.06L258.611 46.14C258.305 45.8333 257.998 45.6187 257.691 45.496C257.507 45.312 257.323 45.22 257.139 45.22C256.955 45.1587 256.71 45.128 256.403 45.128H255.299C254.931 45.128 254.533 45.2507 254.103 45.496ZM36.604 138.968C36.788 139.152 36.9107 139.459 36.972 139.888C37.0333 140.256 37.064 140.655 37.064 141.084C37.1253 141.452 37.156 141.82 37.156 142.188V142.924C37.2787 143.783 37.248 144.764 37.064 145.868C36.9413 146.972 36.6347 147.923 36.144 148.72L34.948 150.744C34.4573 151.48 34.028 152.001 33.66 152.308C33.3533 152.553 32.924 153.013 32.372 153.688C32.1267 154.056 31.82 154.393 31.452 154.7C31.084 154.945 30.7467 155.221 30.44 155.528L28.6 156.356C28.1093 156.601 27.5573 156.816 26.944 157C26.392 157.184 25.8707 157.276 25.38 157.276L20.78 158.012C19.2467 158.257 17.6827 158.38 16.088 158.38H14.34C13.6653 158.441 13.0827 158.472 12.592 158.472C12.1013 158.533 11.5493 158.441 10.936 158.196C10.384 158.012 9.92401 157.92 9.55601 157.92L6.79601 157.644C6.48934 157.583 6.06001 157.521 5.50801 157.46C4.95601 157.399 4.46534 157.368 4.03601 157.368V155.16C4.09734 154.853 4.12801 154.547 4.12801 154.24V153.136C4.06668 152.461 4.06668 151.817 4.12801 151.204C4.18934 150.529 4.18934 149.855 4.12801 149.18C4.06668 148.873 4.03601 148.567 4.03601 148.26V147.248C4.09734 146.635 4.06668 146.021 3.94401 145.408C3.82134 144.795 3.82134 144.181 3.94401 143.568C4.18934 142.464 4.28134 141.36 4.22001 140.256C4.15868 139.152 4.09734 137.956 4.03601 136.668C3.97468 136.055 3.94401 135.472 3.94401 134.92V133.264L4.03601 128.664V127.192C4.03601 126.579 4.00534 125.965 3.94401 125.352C3.94401 124.677 3.91334 124.064 3.85201 123.512V122.316C3.72934 121.764 3.72934 121.151 3.85201 120.476C3.91334 120.047 3.94401 119.587 3.94401 119.096C4.00534 118.605 4.03601 118.115 4.03601 117.624C4.15868 116.643 4.18934 115.508 4.12801 114.22V110.632C4.12801 109.896 4.15868 109.221 4.22001 108.608C4.28134 107.995 4.34268 107.596 4.40401 107.412C4.34268 106.553 4.34268 105.879 4.40401 105.388C4.46534 104.897 4.49601 104.499 4.49601 104.192H14.248C15.4747 104.192 16.732 104.284 18.02 104.468L21.884 104.836C22.436 104.959 22.8347 105.081 23.08 105.204C23.5093 105.327 23.8773 105.419 24.184 105.48C24.4907 105.541 24.7667 105.633 25.012 105.756C25.3187 106.063 25.7173 106.369 26.208 106.676C26.6987 106.983 27.1587 107.289 27.588 107.596C28.0787 107.841 28.508 108.148 28.876 108.516C29.3053 108.823 29.5813 109.16 29.704 109.528C29.8267 109.835 29.98 110.172 30.164 110.54C30.4093 110.847 30.5933 111.153 30.716 111.46C30.9 112.196 31.0227 113.177 31.084 114.404C31.2067 115.569 31.2067 116.765 31.084 117.992C30.9613 119.219 30.716 120.384 30.348 121.488C30.0413 122.592 29.5813 123.451 28.968 124.064C28.2933 124.984 27.588 125.751 26.852 126.364C26.1773 126.916 25.564 127.345 25.012 127.652C24.7053 127.652 24.4293 127.744 24.184 127.928C23.9387 128.051 23.6933 128.112 23.448 128.112C23.9387 128.419 24.3373 128.603 24.644 128.664C24.9507 128.664 25.3493 128.817 25.84 129.124C25.9627 129.124 26.1773 129.185 26.484 129.308C26.7907 129.431 27.0053 129.492 27.128 129.492C27.6187 129.492 28.1093 129.645 28.6 129.952C29.152 130.259 29.8267 130.596 30.624 130.964C30.808 131.087 31.0533 131.271 31.36 131.516C31.728 131.7 32.096 131.945 32.464 132.252C32.832 132.497 33.1693 132.743 33.476 132.988C33.7827 133.233 33.9973 133.448 34.12 133.632C34.6107 134.123 34.856 134.46 34.856 134.644C34.856 134.828 35.0707 135.196 35.5 135.748C35.868 136.239 36.1133 136.729 36.236 137.22C36.3587 137.711 36.4813 138.293 36.604 138.968ZM14.34 151.02C14.5853 151.02 14.9533 150.989 15.444 150.928C15.996 150.867 16.5173 150.805 17.008 150.744C17.56 150.683 18.0507 150.652 18.48 150.652L19.124 150.56C19.5533 150.437 19.952 150.345 20.32 150.284C20.7493 150.161 21.148 150.039 21.516 149.916C22.4973 149.487 23.172 148.965 23.54 148.352C23.9693 147.739 24.3987 146.972 24.828 146.052C25.1347 145.377 25.3187 144.641 25.38 143.844C25.5027 143.047 25.5333 142.311 25.472 141.636V140.44C25.472 140.072 25.4413 139.673 25.38 139.244C25.38 138.692 25.288 138.048 25.104 137.312C24.9813 136.515 24.6747 135.932 24.184 135.564C23.7547 134.889 22.9573 134.368 21.792 134C20.6267 133.571 19.6453 133.295 18.848 133.172H17.284C16.8547 133.111 16.4867 132.957 16.18 132.712H10.292C10.3533 132.835 10.3533 133.111 10.292 133.54V134.368C10.292 135.779 10.2307 137.22 10.108 138.692C9.98534 140.103 9.95468 141.391 10.016 142.556L10.2 146.788V147.524V148.72V149.916V150.56C10.936 150.683 11.6413 150.775 12.316 150.836L14.34 151.02ZM13.144 122.592C13.3893 122.592 13.7267 122.469 14.156 122.224C14.6467 121.917 15.0147 121.519 15.26 121.028C15.5667 120.537 15.8733 119.924 16.18 119.188C16.4867 118.452 16.4867 117.716 16.18 116.98C16.18 116.183 15.9653 115.385 15.536 114.588C15.1067 113.791 14.4627 113.239 13.604 112.932H13.144C13.0827 112.871 12.9293 112.84 12.684 112.84C12.4387 112.963 12.2853 112.993 12.224 112.932C12.1627 112.871 11.9787 112.84 11.672 112.84H11.12C11.12 114.435 11.0587 116.06 10.936 117.716C10.8133 119.372 10.8747 120.997 11.12 122.592H13.144ZM51.5138 133.264C51.5751 133.387 51.6058 133.693 51.6058 134.184V135.288C51.4831 135.595 51.4218 135.901 51.4218 136.208V137.036C51.4218 137.404 51.4524 138.109 51.5138 139.152C51.5751 140.133 51.6058 140.839 51.6058 141.268V143.292V144.948C51.6671 145.5 51.6978 146.052 51.6978 146.604C51.6978 147.033 51.6671 147.463 51.6058 147.892C51.5444 148.26 51.5444 148.659 51.6058 149.088C51.6058 149.456 51.6364 149.824 51.6978 150.192C51.7591 150.499 51.7898 150.836 51.7898 151.204V159.576C51.7898 159.883 51.8204 160.189 51.8818 160.496C52.0044 160.803 51.9738 160.925 51.7898 160.864C51.1764 160.864 50.4711 160.925 49.6738 161.048C48.8764 161.232 48.1404 161.324 47.4658 161.324C46.9138 161.324 46.4231 161.293 45.9938 161.232C45.6258 161.171 45.1044 160.987 44.4298 160.68V159.484C44.1231 158.319 43.9391 157.276 43.8778 156.356V153.596V151.756C43.8778 151.143 43.9391 150.529 44.0618 149.916C44.0618 149.609 44.0004 149.364 43.8778 149.18C43.8778 149.119 43.8471 148.965 43.7858 148.72V147.8V146.972V146.328V142.464C43.7858 141.728 43.7551 140.992 43.6938 140.256C43.6938 139.52 43.7551 138.784 43.8778 138.048C43.9391 137.987 43.9698 137.711 43.9698 137.22C44.0311 136.668 44.0924 136.085 44.1538 135.472C44.2151 134.797 44.2458 134.184 44.2458 133.632C44.3071 133.019 44.3378 132.651 44.3378 132.528C44.3991 131.547 44.3991 130.565 44.3378 129.584C44.3378 128.603 44.3684 127.652 44.4298 126.732C44.4298 124.953 44.3991 123.236 44.3378 121.58C44.3378 119.863 44.3684 118.145 44.4298 116.428V113.208C44.4298 112.104 44.3991 111.031 44.3378 109.988C44.2764 109.436 44.2458 109.007 44.2458 108.7C44.3071 108.393 44.3378 108.117 44.3378 107.872C44.3991 107.565 44.4298 107.259 44.4298 106.952C44.4911 106.645 44.4911 106.185 44.4298 105.572C44.4298 104.959 44.4604 104.376 44.5218 103.824C44.5831 103.211 44.6138 102.628 44.6138 102.076C44.6138 101.463 44.5831 100.941 44.5218 100.512V98.948L44.9818 98.488C45.5951 98.488 46.2698 98.5187 47.0058 98.58C47.7418 98.6413 48.3858 98.6413 48.9378 98.58C49.4284 98.5187 49.7964 98.488 50.0418 98.488H51.1458C51.4524 98.488 51.6978 98.58 51.8818 98.764C52.0044 100.788 52.0044 102.781 51.8818 104.744C51.7591 106.707 51.6978 108.761 51.6978 110.908V117.348C51.6364 119.556 51.5444 121.611 51.4218 123.512C51.3604 125.413 51.3298 127.284 51.3298 129.124C51.3298 129.799 51.3604 130.504 51.4218 131.24C51.4831 131.915 51.5138 132.589 51.5138 133.264ZM67.7453 123.604C68.1746 123.481 68.696 123.297 69.3093 123.052C69.9226 122.807 70.536 122.684 71.1493 122.684H73.3573C74.032 122.623 74.768 122.592 75.5653 122.592C76.1786 122.592 76.7613 122.623 77.3133 122.684C77.9266 122.684 78.4786 122.776 78.9693 122.96C79.092 122.96 79.2453 122.991 79.4293 123.052C79.6133 123.113 79.8586 123.297 80.1653 123.604C80.7786 123.788 81.3613 124.095 81.9133 124.524C82.4653 124.953 82.956 125.475 83.3853 126.088C83.876 126.701 84.3053 127.345 84.6733 128.02C85.1026 128.633 85.4706 129.247 85.7773 129.86C86.084 130.351 86.268 130.995 86.3293 131.792C86.452 132.589 86.6053 133.233 86.7893 133.724C86.7893 134.583 86.82 135.411 86.8813 136.208C87.004 137.005 87.0653 137.833 87.0653 138.692C87.0653 140.103 87.0346 141.452 86.9733 142.74C86.912 144.028 86.8813 145.377 86.8813 146.788L86.6973 149.824C86.6973 150.069 86.5746 150.499 86.3293 151.112C86.084 151.725 85.9306 152.185 85.8693 152.492C85.6853 153.105 85.44 153.841 85.1333 154.7C84.8266 155.497 84.612 155.957 84.4893 156.08C84.1826 156.387 83.968 156.663 83.8453 156.908L83.4773 157.644C83.416 157.889 83.2933 158.104 83.1093 158.288C82.9866 158.472 82.7413 158.656 82.3733 158.84C82.0666 158.963 81.6986 159.147 81.2693 159.392C80.84 159.699 80.4413 159.975 80.0733 160.22C79.7666 160.343 79.6133 160.435 79.6133 160.496C79.6133 160.619 79.3986 160.741 78.9693 160.864L77.3133 161.232C76.5773 161.355 75.964 161.385 75.4733 161.324C75.044 161.263 74.5533 161.232 74.0013 161.232C72.284 161.232 70.5666 160.895 68.8493 160.22C68.2973 160.22 67.7453 160.097 67.1933 159.852C66.7026 159.607 66.3346 159.331 66.0893 159.024C65.7826 158.779 65.476 158.503 65.1693 158.196C64.8626 157.951 64.556 157.675 64.2493 157.368C63.7586 156.816 63.36 156.264 63.0533 155.712C62.7466 155.16 62.44 154.577 62.1333 153.964C61.8266 153.289 61.4893 152.615 61.1213 151.94C60.7533 151.204 60.508 150.407 60.3853 149.548C60.2626 148.137 60.14 146.849 60.0173 145.684C59.956 144.519 59.9253 143.353 59.9253 142.188V138.416C59.864 138.293 59.8333 138.048 59.8333 137.68C59.8333 137.312 59.864 137.067 59.9253 136.944V136.024C59.9866 135.656 60.048 135.319 60.1093 135.012C60.1706 134.521 60.2013 134.031 60.2013 133.54C60.2013 133.066 60.3444 132.592 60.6307 132.118C60.6329 132.099 60.6738 131.991 60.7533 131.792L61.3053 130.688C61.4893 130.259 61.6426 129.891 61.7653 129.584C61.888 129.277 61.9493 129.155 61.9493 129.216L62.5933 128.02C62.7773 127.836 62.9613 127.621 63.1453 127.376C63.3293 127.131 63.5746 126.855 63.8813 126.548C64.2493 126.241 64.7093 125.843 65.2613 125.352C65.8746 124.861 66.7026 124.279 67.7453 123.604ZM74.4613 138.876C74.216 138.876 73.9706 138.999 73.7253 139.244C73.5413 139.489 73.4186 139.704 73.3573 139.888C72.928 140.808 72.7133 141.575 72.7133 142.188C72.7133 143.844 73.296 144.948 74.4613 145.5C74.768 145.5 75.0133 145.408 75.1973 145.224C75.4426 144.979 75.5653 144.733 75.5653 144.488C75.5653 143.875 75.6266 143.169 75.7493 142.372C75.9333 141.575 75.872 140.747 75.5653 139.888C75.2586 139.581 75.0746 139.336 75.0133 139.152C74.952 138.968 74.768 138.876 74.4613 138.876ZM101.437 123.604C101.866 123.481 102.387 123.297 103.001 123.052C103.614 122.807 104.227 122.684 104.841 122.684H107.049C107.723 122.623 108.459 122.592 109.257 122.592C109.87 122.592 110.453 122.623 111.005 122.684C111.618 122.684 112.17 122.776 112.661 122.96C112.783 122.96 112.937 122.991 113.121 123.052C113.305 123.113 113.55 123.297 113.857 123.604C114.47 123.788 115.053 124.095 115.605 124.524C116.157 124.953 116.647 125.475 117.077 126.088C117.567 126.701 117.997 127.345 118.365 128.02C118.794 128.633 119.162 129.247 119.469 129.86C119.775 130.351 119.959 130.995 120.021 131.792C120.143 132.589 120.297 133.233 120.481 133.724C120.481 134.583 120.511 135.411 120.573 136.208C120.695 137.005 120.757 137.833 120.757 138.692C120.757 140.103 120.726 141.452 120.665 142.74C120.603 144.028 120.573 145.377 120.573 146.788L120.389 149.824C120.389 150.069 120.266 150.499 120.021 151.112C119.775 151.725 119.622 152.185 119.561 152.492C119.377 153.105 119.131 153.841 118.825 154.7C118.518 155.497 118.303 155.957 118.181 156.08C117.874 156.387 117.659 156.663 117.537 156.908L117.169 157.644C117.107 157.889 116.985 158.104 116.801 158.288C116.678 158.472 116.433 158.656 116.065 158.84C115.758 158.963 115.39 159.147 114.961 159.392C114.531 159.699 114.133 159.975 113.765 160.22C113.458 160.343 113.305 160.435 113.305 160.496C113.305 160.619 113.09 160.741 112.661 160.864L111.005 161.232C110.269 161.355 109.655 161.385 109.165 161.324C108.735 161.263 108.245 161.232 107.693 161.232C105.975 161.232 104.258 160.895 102.541 160.22C101.989 160.22 101.437 160.097 100.885 159.852C100.394 159.607 100.026 159.331 99.7807 159.024C99.474 158.779 99.1674 158.503 98.8607 158.196C98.554 157.951 98.2474 157.675 97.9407 157.368C97.45 156.816 97.0514 156.264 96.7447 155.712C96.438 155.16 96.1314 154.577 95.8247 153.964C95.518 153.289 95.1807 152.615 94.8127 151.94C94.4447 151.204 94.1994 150.407 94.0767 149.548C93.954 148.137 93.8314 146.849 93.7087 145.684C93.6474 144.519 93.6167 143.353 93.6167 142.188V138.416C93.5554 138.293 93.5247 138.048 93.5247 137.68C93.5247 137.312 93.5554 137.067 93.6167 136.944V136.024C93.678 135.656 93.7394 135.319 93.8007 135.012C93.862 134.521 93.8927 134.031 93.8927 133.54C93.8927 133.066 94.0358 132.592 94.3221 132.118C94.3243 132.099 94.3652 131.991 94.4447 131.792L94.9967 130.688C95.1807 130.259 95.334 129.891 95.4567 129.584C95.5794 129.277 95.6407 129.155 95.6407 129.216L96.2847 128.02C96.4687 127.836 96.6527 127.621 96.8367 127.376C97.0207 127.131 97.266 126.855 97.5727 126.548C97.9407 126.241 98.4007 125.843 98.9527 125.352C99.566 124.861 100.394 124.279 101.437 123.604ZM108.153 138.876C107.907 138.876 107.662 138.999 107.417 139.244C107.233 139.489 107.11 139.704 107.049 139.888C106.619 140.808 106.405 141.575 106.405 142.188C106.405 143.844 106.987 144.948 108.153 145.5C108.459 145.5 108.705 145.408 108.889 145.224C109.134 144.979 109.257 144.733 109.257 144.488C109.257 143.875 109.318 143.169 109.441 142.372C109.625 141.575 109.563 140.747 109.257 139.888C108.95 139.581 108.766 139.336 108.705 139.152C108.643 138.968 108.459 138.876 108.153 138.876ZM176.988 155.896C177.111 154.485 177.141 153.228 177.08 152.124C177.019 150.959 176.988 149.947 176.988 149.088C176.804 148.352 176.681 147.616 176.62 146.88C176.559 146.083 176.467 145.347 176.344 144.672C176.037 143.813 175.823 142.955 175.7 142.096C175.639 141.176 175.455 140.287 175.148 139.428C175.148 138.508 174.964 137.649 174.596 136.852C174.289 135.993 173.707 135.257 172.848 134.644C172.173 134.337 171.56 134.061 171.008 133.816C170.456 133.571 169.873 133.448 169.26 133.448C168.953 133.632 168.432 133.939 167.696 134.368C167.021 134.797 166.531 135.349 166.224 136.024C165.917 136.76 165.641 137.435 165.396 138.048C165.212 138.6 164.997 139.06 164.752 139.428C164.384 140.041 164.2 140.777 164.2 141.636C164.2 142.495 164.169 143.261 164.108 143.936C164.108 144.059 164.077 144.365 164.016 144.856C163.955 145.285 163.893 145.776 163.832 146.328C163.771 146.88 163.709 147.401 163.648 147.892C163.587 148.321 163.556 148.597 163.556 148.72L162.82 154.056C162.82 154.485 162.789 154.915 162.728 155.344V156.54C162.728 156.847 162.697 157.153 162.636 157.46C162.575 157.767 162.544 158.073 162.544 158.38H161.992C161.256 158.503 160.459 158.564 159.6 158.564C158.803 158.564 157.852 158.503 156.748 158.38C156.441 158.319 156.165 158.257 155.92 158.196C155.736 158.135 155.644 157.797 155.644 157.184C155.644 156.448 155.613 155.773 155.552 155.16V153.228C155.613 152.308 155.644 151.388 155.644 150.468C155.644 149.487 155.552 148.444 155.368 147.34C155.368 146.543 155.276 145.684 155.092 144.764C154.908 143.844 154.755 142.955 154.632 142.096C154.509 141.299 154.448 140.501 154.448 139.704C154.448 138.845 154.295 138.079 153.988 137.404C153.804 136.791 153.589 136.239 153.344 135.748C153.16 135.196 152.915 134.613 152.608 134C152.547 133.877 152.485 133.816 152.424 133.816L152.24 133.632L151.596 133.356C150.921 132.927 150.093 132.62 149.112 132.436H148.744L146.72 132.712C145.493 132.896 144.512 133.325 143.776 134C141.997 135.779 140.832 138.14 140.28 141.084C139.912 141.636 139.697 142.219 139.636 142.832C139.575 143.384 139.483 143.936 139.36 144.488C139.237 145.163 139.145 145.868 139.084 146.604C139.084 147.279 139.053 147.953 138.992 148.628C138.992 149.119 138.9 149.609 138.716 150.1C138.593 150.591 138.593 151.051 138.716 151.48C138.716 151.603 138.685 151.879 138.624 152.308C138.624 152.737 138.593 153.197 138.532 153.688C138.532 154.179 138.501 154.639 138.44 155.068V155.896C138.317 156.141 138.256 156.632 138.256 157.368C138.256 158.104 138.225 158.533 138.164 158.656C137.857 158.656 137.489 158.687 137.06 158.748C136.692 158.871 136.293 158.993 135.864 159.116C135.496 159.239 135.067 159.269 134.576 159.208C134.085 159.147 133.625 159.055 133.196 158.932C132.276 158.748 131.601 158.656 131.172 158.656C130.743 158.656 130.191 158.564 129.516 158.38C129.516 158.012 129.485 157.552 129.424 157C129.424 156.387 129.363 155.773 129.24 155.16C129.179 154.485 129.117 153.841 129.056 153.228V151.848C129.056 151.664 129.025 151.357 128.964 150.928C128.964 150.437 128.933 149.947 128.872 149.456C128.872 148.904 128.841 148.413 128.78 147.984C128.719 147.493 128.688 147.156 128.688 146.972C128.627 146.359 128.596 145.807 128.596 145.316V143.66C128.657 143.047 128.688 142.464 128.688 141.912V140.256V132.62V131.24C128.749 130.443 128.78 129.615 128.78 128.756C128.841 127.897 128.872 127.1 128.872 126.364C128.933 125.567 128.964 125.076 128.964 124.892C129.271 124.892 129.669 124.861 130.16 124.8C130.651 124.739 131.049 124.708 131.356 124.708H133.012C133.564 124.647 134.116 124.616 134.668 124.616H135.588C135.588 124.555 135.711 124.555 135.956 124.616C136.14 125.168 136.201 125.536 136.14 125.72C136.14 125.843 136.201 126.119 136.324 126.548C136.385 126.855 136.447 127.223 136.508 127.652C136.631 128.081 136.692 128.449 136.692 128.756V129.216C137.244 128.664 137.796 128.235 138.348 127.928C138.9 127.56 139.329 127.223 139.636 126.916C140.495 126.241 141.384 125.781 142.304 125.536C143.224 125.291 144.267 125.076 145.432 124.892L149.572 124.432H150.216C151.136 124.616 151.964 124.831 152.7 125.076C153.436 125.26 154.203 125.597 155 126.088L157.3 128.112C157.668 128.357 157.913 128.572 158.036 128.756C158.343 129.001 158.619 129.308 158.864 129.676C159.171 129.983 159.447 130.443 159.692 131.056L160.52 130.228C160.765 129.921 161.041 129.615 161.348 129.308C161.471 129.185 161.624 129.063 161.808 128.94C162.053 128.817 162.329 128.695 162.636 128.572C163.127 128.265 163.495 128.02 163.74 127.836C163.985 127.591 164.353 127.345 164.844 127.1C165.151 126.977 165.488 126.855 165.856 126.732C166.285 126.609 166.653 126.456 166.96 126.272C168.432 125.659 169.751 125.536 170.916 125.904C172.143 126.272 173.339 126.609 174.504 126.916C175.424 127.223 176.191 127.683 176.804 128.296C177.479 128.909 178.123 129.645 178.736 130.504L180.484 134C180.791 134.92 181.067 135.84 181.312 136.76C181.619 137.619 181.772 138.508 181.772 139.428C182.017 140.593 182.263 141.789 182.508 143.016C182.753 144.181 182.876 145.5 182.876 146.972C183.183 147.892 183.275 148.904 183.152 150.008C183.029 151.112 183.121 152.093 183.428 152.952V157.736C182.815 157.736 182.324 157.828 181.956 158.012C181.649 158.257 181.159 158.38 180.484 158.38C180.177 158.38 179.779 158.411 179.288 158.472C178.797 158.595 178.399 158.717 178.092 158.84C177.785 158.84 177.509 158.809 177.264 158.748C177.08 158.748 176.988 158.625 176.988 158.38V155.896ZM200.751 152.308C200.689 153.289 200.597 154.209 200.475 155.068C200.475 155.436 200.383 155.712 200.199 155.896C199.585 156.019 198.88 156.141 198.083 156.264C197.285 156.325 196.549 156.325 195.875 156.264C195.323 156.203 194.771 156.233 194.219 156.356C193.667 156.417 193.268 156.448 193.023 156.448C193.023 156.08 192.992 155.743 192.931 155.436C192.869 155.129 192.869 154.7 192.931 154.148C192.992 153.657 192.992 153.136 192.931 152.584V151.02V146.512C192.869 145.101 192.839 143.66 192.839 142.188C192.839 140.716 192.808 139.735 192.747 139.244C192.685 138.692 192.685 138.14 192.747 137.588C192.869 137.036 192.931 136.484 192.931 135.932C192.869 135.073 192.839 134.215 192.839 133.356C192.9 132.436 192.931 131.547 192.931 130.688C192.931 129.952 192.9 129.001 192.839 127.836C192.777 126.609 192.808 125.628 192.931 124.892C193.421 124.769 194.035 124.708 194.771 124.708C195.507 124.708 196.304 124.677 197.163 124.616C197.837 124.555 198.512 124.524 199.187 124.524H200.659C200.781 124.524 200.812 124.708 200.751 125.076V125.72C200.689 127.253 200.689 128.603 200.751 129.768C200.812 130.872 200.781 132.037 200.659 133.264C200.72 134.491 200.72 135.564 200.659 136.484C200.659 137.343 200.597 138.385 200.475 139.612V141.084C200.475 141.881 200.505 142.801 200.567 143.844C200.628 144.825 200.659 145.807 200.659 146.788V148.996C200.781 150.223 200.812 151.327 200.751 152.308ZM192.839 118.636C192.777 118.329 192.747 117.869 192.747 117.256C192.808 116.643 192.839 115.999 192.839 115.324C192.839 115.017 192.808 114.741 192.747 114.496V113.76V113.484C192.808 113.423 192.839 113.331 192.839 113.208H199.463C199.769 113.208 199.953 113.239 200.015 113.3C200.076 113.3 200.107 113.453 200.107 113.76V119.74C199.739 119.801 199.156 119.832 198.359 119.832H196.059H193.851C193.237 119.771 192.931 119.679 192.931 119.556C192.869 119.372 192.839 119.065 192.839 118.636ZM210.176 125.076C210.115 124.892 210.115 124.708 210.176 124.524H210.452C210.636 124.463 210.79 124.432 210.912 124.432H211.464C211.771 124.371 212.078 124.371 212.384 124.432C212.691 124.432 212.998 124.401 213.304 124.34H216.064C216.187 124.34 216.31 124.401 216.432 124.524L216.708 124.8L216.892 125.628C216.892 125.812 216.923 126.027 216.984 126.272C217.107 126.763 217.168 127.284 217.168 127.836C217.23 128.02 217.26 128.204 217.26 128.388C217.26 128.756 217.291 128.94 217.352 128.94C217.598 128.695 217.782 128.449 217.904 128.204C218.027 127.897 218.18 127.683 218.364 127.56L218.732 127.192C218.855 127.131 218.947 127.069 219.008 127.008C219.131 126.947 219.284 126.885 219.468 126.824L220.296 126.272C220.848 125.965 221.339 125.72 221.768 125.536C222.259 125.352 222.995 125.015 223.976 124.524C224.16 124.463 224.467 124.371 224.896 124.248C225.387 124.125 225.908 124.033 226.46 123.972C227.012 123.849 227.564 123.788 228.116 123.788C228.73 123.727 229.251 123.696 229.68 123.696C230.355 123.757 230.907 123.849 231.336 123.972C231.766 124.033 232.348 124.125 233.084 124.248C233.391 124.309 233.882 124.371 234.556 124.432C235.292 124.493 235.783 124.585 236.028 124.708C237.562 125.567 238.788 126.303 239.708 126.916C240.628 127.529 241.426 128.357 242.1 129.4C242.223 129.523 242.407 129.676 242.652 129.86C242.898 129.983 243.174 130.197 243.48 130.504C243.787 130.811 244.063 131.24 244.308 131.792C244.615 132.283 244.768 132.589 244.768 132.712C245.014 133.755 245.29 134.613 245.596 135.288C245.903 135.901 246.087 136.729 246.148 137.772C246.21 138.263 246.363 138.815 246.608 139.428C246.854 139.98 246.976 140.563 246.976 141.176C246.976 141.789 247.007 142.495 247.068 143.292C247.13 144.028 247.099 145.101 246.976 146.512V147.708C247.038 148.076 247.068 148.444 247.068 148.812V153.044V154.24C247.068 154.608 247.038 154.976 246.976 155.344V156.632C247.038 157 247.068 157.429 247.068 157.92V158.288C247.068 158.472 247.007 158.595 246.884 158.656C246.762 158.717 246.578 158.748 246.332 158.748H245.872H244.308C243.818 158.809 243.296 158.809 242.744 158.748L239.984 158.472C239.739 158.411 239.402 158.411 238.972 158.472C238.543 158.533 238.267 158.441 238.144 158.196C238.083 156.785 238.052 155.804 238.052 155.252C238.114 154.639 238.144 154.087 238.144 153.596C238.144 153.289 238.114 152.921 238.052 152.492C237.991 152.001 237.93 151.357 237.868 150.56L238.144 145.684C238.144 145.071 238.114 144.611 238.052 144.304C238.052 143.936 238.022 143.66 237.96 143.476C237.96 143.231 237.93 142.955 237.868 142.648V141.176C237.868 140.072 237.654 138.968 237.224 137.864C236.856 136.76 236.396 135.656 235.844 134.552C235.538 133.939 235.139 133.387 234.648 132.896C234.158 132.405 233.514 131.976 232.716 131.608C232.594 131.547 232.44 131.485 232.256 131.424C232.072 131.363 231.919 131.332 231.796 131.332L229.68 131.148C228.638 131.087 227.564 131.271 226.46 131.7C225.356 132.129 224.682 132.559 224.436 132.988C224.007 133.724 223.67 134.276 223.424 134.644L222.688 135.748C222.627 135.932 222.535 136.269 222.412 136.76C222.29 137.189 222.136 137.741 221.952 138.416C221.83 139.029 221.707 139.704 221.584 140.44C221.462 141.115 221.4 141.728 221.4 142.28V143.568C221.4 143.936 221.37 144.304 221.308 144.672L221.124 147.248L220.572 150.744V152.768C220.572 153.443 220.542 154.087 220.48 154.7V156.816C220.112 157.061 219.806 157.184 219.56 157.184C218.886 157.307 218.395 157.429 218.088 157.552C217.843 157.675 217.352 157.705 216.616 157.644C215.942 157.583 215.052 157.583 213.948 157.644C212.844 157.767 211.955 157.767 211.28 157.644C210.606 157.521 210.268 157.429 210.268 157.368V156.908V155.804C210.33 155.252 210.36 154.7 210.36 154.148V152.4C210.422 151.848 210.452 151.419 210.452 151.112C210.452 150.008 210.422 149.088 210.36 148.352C210.299 147.616 210.268 146.696 210.268 145.592C210.268 144.672 210.238 143.936 210.176 143.384C210.176 142.771 210.146 142.004 210.084 141.084C210.084 140.593 210.115 139.98 210.176 139.244C210.238 138.447 210.268 137.619 210.268 136.76C210.268 135.717 210.238 134.705 210.176 133.724V131.516C210.115 130.473 210.084 129.492 210.084 128.572C210.084 127.591 210.146 126.609 210.268 125.628C210.268 125.444 210.238 125.26 210.176 125.076ZM36.972 67.888C36.9107 67.4587 36.788 67.152 36.604 66.968C36.4813 66.2933 36.3587 65.7107 36.236 65.22C36.1133 64.7293 35.868 64.2387 35.5 63.748C35.0707 63.196 34.856 62.828 34.856 62.644C34.856 62.46 34.6107 62.1227 34.12 61.632C33.9973 61.448 33.7827 61.2333 33.476 60.988C33.1693 60.7427 32.832 60.4973 32.464 60.252C32.096 59.9453 31.728 59.7 31.36 59.516C31.0533 59.2707 30.808 59.0867 30.624 58.964C29.8267 58.596 29.152 58.2587 28.6 57.952C28.1093 57.6453 27.6187 57.492 27.128 57.492C27.0053 57.492 26.7907 57.4307 26.484 57.308C26.1773 57.1853 25.9627 57.124 25.84 57.124C25.3493 56.8173 24.9507 56.664 24.644 56.664C24.3373 56.6027 23.9387 56.4187 23.448 56.112C23.6933 56.112 23.9387 56.0507 24.184 55.928C24.4293 55.744 24.7053 55.652 25.012 55.652C25.564 55.3453 26.1773 54.916 26.852 54.364C27.588 53.7507 28.2933 52.984 28.968 52.064C29.5813 51.4507 30.0413 50.592 30.348 49.488C30.716 48.384 30.9613 47.2187 31.084 45.992C31.2067 44.7653 31.2067 43.5693 31.084 42.404C31.0227 41.1773 30.9 40.196 30.716 39.46C30.5933 39.1533 30.4093 38.8467 30.164 38.54C29.98 38.172 29.8267 37.8347 29.704 37.528C29.5813 37.16 29.3053 36.8227 28.876 36.516C28.508 36.148 28.0787 35.8413 27.588 35.596C27.1587 35.2893 26.6987 34.9827 26.208 34.676C25.7173 34.3693 25.3187 34.0627 25.012 33.756C24.7667 33.6333 24.4907 33.5413 24.184 33.48C23.8773 33.4187 23.5093 33.3267 23.08 33.204C22.8347 33.0813 22.436 32.9587 21.884 32.836L18.02 32.468C16.732 32.284 15.4747 32.192 14.248 32.192H4.49601C4.49601 32.4987 4.46534 32.8973 4.40401 33.388C4.34268 33.8787 4.34268 34.5533 4.40401 35.412C4.34268 35.596 4.28134 35.9947 4.22001 36.608C4.15868 37.2213 4.12801 37.896 4.12801 38.632V42.22C4.18934 43.508 4.15868 44.6427 4.03601 45.624C4.03601 46.1147 4.00534 46.6053 3.94401 47.096C3.94401 47.5867 3.91334 48.0467 3.85201 48.476C3.72934 49.1507 3.72934 49.764 3.85201 50.316V51.512C3.91334 52.064 3.94401 52.6773 3.94401 53.352C4.00534 53.9653 4.03601 54.5787 4.03601 55.192V56.664L3.94401 61.264V62.92C3.94401 63.472 3.97468 64.0547 4.03601 64.668C4.09734 65.956 4.15868 67.152 4.22001 68.256C4.28134 69.36 4.18934 70.464 3.94401 71.568C3.82134 72.1813 3.82134 72.7947 3.94401 73.408C4.06668 74.0213 4.09734 74.6347 4.03601 75.248V76.26C4.03601 76.5667 4.06668 76.8733 4.12801 77.18C4.18934 77.8547 4.18934 78.5293 4.12801 79.204C4.06668 79.8173 4.06668 80.4613 4.12801 81.136V82.24C4.12801 82.5467 4.09734 82.8533 4.03601 83.16V85.368C4.46534 85.368 4.95601 85.3987 5.50801 85.46C6.06001 85.5213 6.48934 85.5827 6.79601 85.644L9.55601 85.92C9.92401 85.92 10.384 86.012 10.936 86.196C11.5493 86.4413 12.1013 86.5333 12.592 86.472C13.0827 86.472 13.6653 86.4413 14.34 86.38H16.088C17.6827 86.38 19.2467 86.2573 20.78 86.012L25.38 85.276C25.8707 85.276 26.392 85.184 26.944 85C27.5573 84.816 28.1093 84.6013 28.6 84.356L30.44 83.528C30.7467 83.2213 31.084 82.9453 31.452 82.7C31.82 82.3933 32.1267 82.056 32.372 81.688C32.924 81.0133 33.3533 80.5533 33.66 80.308C34.028 80.0013 34.4573 79.48 34.948 78.744L36.144 76.72C36.6347 75.9227 36.9413 74.972 37.064 73.868C37.248 72.764 37.2787 71.7827 37.156 70.924V70.188C37.156 69.82 37.1253 69.452 37.064 69.084C37.064 68.6547 37.0333 68.256 36.972 67.888ZM15.444 78.928C14.9533 78.9893 14.5853 79.02 14.34 79.02L12.316 78.836C11.6413 78.7747 10.936 78.6827 10.2 78.56V77.916V76.72V75.524V74.788L10.016 70.556C9.95468 69.3907 9.98534 68.1027 10.108 66.692C10.2307 65.22 10.292 63.7787 10.292 62.368V61.54C10.3533 61.1107 10.3533 60.8347 10.292 60.712H16.18C16.4867 60.9573 16.8547 61.1107 17.284 61.172H18.848C19.6453 61.2947 20.6267 61.5707 21.792 62C22.9573 62.368 23.7547 62.8893 24.184 63.564C24.6747 63.932 24.9813 64.5147 25.104 65.312C25.288 66.048 25.38 66.692 25.38 67.244C25.4413 67.6733 25.472 68.072 25.472 68.44V69.636C25.5333 70.3107 25.5027 71.0467 25.38 71.844C25.3187 72.6413 25.1347 73.3773 24.828 74.052C24.3987 74.972 23.9693 75.7387 23.54 76.352C23.172 76.9653 22.4973 77.4867 21.516 77.916C21.148 78.0387 20.7493 78.1613 20.32 78.284C19.952 78.3453 19.5533 78.4373 19.124 78.56L18.48 78.652C18.0507 78.652 17.56 78.6827 17.008 78.744C16.5173 78.8053 15.996 78.8667 15.444 78.928ZM14.156 50.224C13.7267 50.4693 13.3893 50.592 13.144 50.592H11.12C10.8747 48.9973 10.8133 47.372 10.936 45.716C11.0587 44.06 11.12 42.4347 11.12 40.84H11.672C11.9787 40.84 12.1627 40.8707 12.224 40.932C12.2853 40.9933 12.4387 40.9627 12.684 40.84C12.9293 40.84 13.0827 40.8707 13.144 40.932H13.604C14.4627 41.2387 15.1067 41.7907 15.536 42.588C15.9653 43.3853 16.18 44.1827 16.18 44.98C16.4867 45.716 16.4867 46.452 16.18 47.188C15.8733 47.924 15.5667 48.5373 15.26 49.028C15.0147 49.5187 14.6467 49.9173 14.156 50.224ZM42.4978 71.292V73.224C42.4978 73.776 42.4671 74.3893 42.4058 75.064C42.3444 75.7387 42.3444 76.3827 42.4058 76.996C42.4058 78.1613 42.4364 79.296 42.4978 80.4C42.5591 81.504 42.5284 82.608 42.4058 83.712C42.3444 83.8347 42.3444 84.2333 42.4058 84.908C42.4671 85.5213 42.5591 86.0427 42.6818 86.472C43.8471 87.1467 45.9631 87.1467 49.0298 86.472V84.448V83.16C49.0911 82.7307 49.1218 82.332 49.1218 81.964V78.468V77.364C49.1831 76.996 49.2138 76.5973 49.2138 76.168C49.2138 75.616 49.2444 75.0027 49.3058 74.328C49.4284 73.6533 49.4898 73.1013 49.4898 72.672C49.4898 71.9973 49.5511 71.2 49.6738 70.28C49.7964 69.36 49.9191 68.624 50.0418 68.072V67.06C50.1031 66.4467 50.1644 66.0173 50.2258 65.772C50.4098 65.3427 50.6551 64.9747 50.9618 64.668L51.9738 63.656C52.1578 63.472 52.5258 63.2573 53.0778 63.012C53.6911 62.7053 54.1511 62.4907 54.4578 62.368C54.6418 62.2453 54.8258 62.184 55.0098 62.184H55.5618C56.6658 62.184 57.8004 62.7667 58.9658 63.932C59.0271 64.0547 59.1191 64.208 59.2418 64.392C59.3031 64.5147 59.3644 64.668 59.4258 64.852C59.4871 65.036 59.5178 65.1893 59.5178 65.312C59.5178 65.496 59.5484 65.7413 59.6098 66.048C59.7324 66.2933 59.8244 66.6 59.8858 66.968V67.244C59.9471 67.3667 60.0391 67.4587 60.1618 67.52H61.1738C62.4618 67.3973 63.4738 67.3667 64.2098 67.428C65.0071 67.428 65.8658 67.2747 66.7858 66.968C67.0924 66.968 67.2764 66.8453 67.3378 66.6C67.3991 66.3547 67.4298 66.0787 67.4298 65.772C67.1231 64.6067 66.7858 63.5333 66.4178 62.552C66.0498 61.5707 65.5591 60.6507 64.9458 59.792C64.7004 59.1787 64.3018 58.688 63.7498 58.32C63.1978 57.8907 62.6151 57.4 62.0018 56.848L61.7258 56.572C61.4191 56.388 61.0511 56.2653 60.6218 56.204C60.0698 55.8973 59.5178 55.652 58.9658 55.468C58.4138 55.2227 58.0151 55.1 57.7698 55.1C56.6044 54.9773 55.4391 55.0387 54.2738 55.284C53.1084 55.5293 52.1271 56.0507 51.3298 56.848L50.7778 57.032C50.4711 57.3387 50.2564 57.6147 50.1338 57.86C50.0724 58.044 49.9191 58.2893 49.6738 58.596V55.652C49.6738 55.3453 49.7044 55.1307 49.7658 55.008C49.8271 54.824 49.8578 54.5787 49.8578 54.272C49.6738 54.1493 49.5818 54.1187 49.5818 54.18L48.9378 53.996H47.6498C47.4044 53.996 47.1591 53.9653 46.9138 53.904C45.9938 53.7813 45.1658 53.7507 44.4298 53.812H42.3138V57.952L42.5898 65.404V67.152C42.5898 67.704 42.5591 68.256 42.4978 68.808C42.5591 69.6053 42.5591 70.4333 42.4978 71.292ZM102.128 41.5675C97.0297 44.3733 87.9318 45.2722 83.0819 41.4309C82.2598 35.3755 87.7786 28.2345 92.8766 25.4286C97.9752 22.6252 107.071 21.7308 111.918 25.5676C112.74 31.621 107.226 38.7641 102.128 41.5675ZM53.8749 41.5676C58.9713 44.3733 68.0723 45.2722 72.9177 41.431C73.7422 35.3783 68.2231 28.2376 63.1271 25.4295C58.0281 22.6262 48.9297 21.7293 44.0819 25.5684C43.2597 31.6215 48.7789 38.7643 53.8749 41.5676ZM74 86.7997V51.2003C74 50.5374 75.7906 50 78.0002 50C80.2094 50 82 50.5374 82 51.2003V86.7997C82 87.4626 80.2094 88 78.0002 88C75.7906 88 74 87.4626 74 86.7997ZM259.102 184.211C262.414 188.263 269.691 191.997 275.01 190.318C277.714 185.439 275.503 177.565 272.191 173.513C268.879 169.462 261.603 165.728 256.282 167.406C253.579 172.285 255.791 180.159 259.102 184.211ZM235.245 175.049C237.155 170.178 242.939 164.391 248.519 164.361C252.588 168.177 252.892 176.352 250.982 181.223C249.07 186.092 243.286 191.874 237.71 191.906C233.642 188.092 233.333 179.918 235.245 175.049ZM267.958 148.311C262.806 149.213 255.982 153.73 254.846 159.19C257.773 163.937 265.723 165.861 270.876 164.962C276.029 164.057 282.85 159.54 283.989 154.08C281.06 149.334 273.109 147.408 267.958 148.311ZM197.616 173.325C198.9 171.881 198.77 169.668 197.325 168.384C195.881 167.1 193.668 167.23 192.384 168.675C186.105 175.739 167.209 190.844 143.114 193.521C128.243 195.174 118.783 191.81 108.482 187.238C107.214 186.675 105.93 186.092 104.62 185.497C95.1621 181.202 84.3753 176.304 68.495 174.035C53.732 171.926 39.5288 174.925 27.8658 179.422C16.2128 183.915 6.87449 189.99 1.74128 194.326C0.264691 195.574 0.0789478 197.782 1.32641 199.259C2.57387 200.735 4.78215 200.921 6.25874 199.674C10.7922 195.844 19.4539 190.168 30.3843 185.953C41.3046 181.742 54.268 179.074 67.505 180.965C82.3447 183.085 92.2633 187.582 101.692 191.858C103.015 192.458 104.327 193.053 105.643 193.637C116.467 198.44 127.257 202.326 143.887 200.479C170.191 197.556 190.562 181.261 197.616 173.325Z" fill="#333333"/>
</svg>
